<svg width="292" height="53" viewBox="0 0 292 53" fill="none" xmlns="http://www.w3.org/2000/svg">
<g clip-path="url(#clip0_1_5793)">
<rect width="1440" height="3979" transform="translate(-533 -2482)" fill="white"/>
<g filter="url(#filter0_d_1_5793)">
<rect x="-6.10352e-05" y="-400" width="376" height="428" fill="white"/>
</g>
<g filter="url(#filter1_d_1_5793)">
<rect x="-6.10352e-05" y="1" width="293.753" height="54" fill="#E3B873"/>
</g>
<path d="M69.7772 34.3258C69.1086 34.3258 68.5192 34.2181 68.0092 34.0028C67.5106 33.7761 67.1252 33.4928 66.8532 33.1528C66.5926 32.8128 66.4622 32.4671 66.4622 32.1158C66.4622 31.7305 66.5756 31.4245 66.8022 31.1978C67.0402 30.9598 67.3519 30.8408 67.7372 30.8408C67.8279 30.8408 67.9186 30.8521 68.0092 30.8748C68.0999 30.8861 68.1622 30.8918 68.1962 30.8918L68.4172 30.9258V33.6458L68.7402 33.7818C68.9442 33.8611 69.1766 33.9008 69.4372 33.9008C69.9926 33.9008 70.4459 33.7535 70.7972 33.4588C71.1486 33.1641 71.4206 32.6201 71.6132 31.8268C71.8059 31.0335 71.9022 29.9115 71.9022 28.4608C71.8002 28.6308 71.6416 28.8008 71.4262 28.9708C70.9956 29.3108 70.5026 29.4808 69.9472 29.4808C69.1199 29.4808 68.3946 29.3278 67.7712 29.0218C67.1592 28.7045 66.6889 28.2681 66.3602 27.7128C66.0316 27.1575 65.8672 26.5285 65.8672 25.8258C65.8672 24.6131 66.2412 23.6611 66.9892 22.9698C67.7486 22.2671 68.8196 21.9158 70.2022 21.9158C71.6302 21.9158 72.7522 22.4258 73.5682 23.4458C74.3842 24.4658 74.7922 26.0241 74.7922 28.1208C74.7922 30.1608 74.3446 31.7078 73.4492 32.7618C72.5652 33.8045 71.3412 34.3258 69.7772 34.3258ZM70.2872 29.0558C70.7519 29.0558 71.1202 28.8291 71.3922 28.3758C71.6756 27.9225 71.8172 27.2141 71.8172 26.2508C71.8172 24.8115 71.6586 23.7858 71.3412 23.1738C71.0352 22.5618 70.6556 22.2558 70.2022 22.2558C69.9756 22.2558 69.7489 22.3691 69.5222 22.5958C69.3069 22.8225 69.1256 23.1908 68.9782 23.7008C68.8309 24.2108 68.7572 24.8625 68.7572 25.6558C68.7572 26.4491 68.8309 27.1008 68.9782 27.6108C69.1369 28.1208 69.3296 28.4891 69.5562 28.7158C69.7942 28.9425 70.0379 29.0558 70.2872 29.0558ZM81.3392 34.3258C80.4212 34.3258 79.5882 34.0821 78.8402 33.5948C78.0922 33.1075 77.4972 32.3991 77.0552 31.4698C76.6246 30.5291 76.4092 29.4128 76.4092 28.1208C76.4092 26.8288 76.6246 25.7181 77.0552 24.7888C77.4972 23.8481 78.0922 23.1341 78.8402 22.6468C79.5882 22.1595 80.4212 21.9158 81.3392 21.9158C82.2572 21.9158 83.0902 22.1595 83.8382 22.6468C84.5862 23.1341 85.1756 23.8481 85.6062 24.7888C86.0482 25.7181 86.2692 26.8288 86.2692 28.1208C86.2692 29.4128 86.0482 30.5291 85.6062 31.4698C85.1756 32.3991 84.5862 33.1075 83.8382 33.5948C83.0902 34.0821 82.2572 34.3258 81.3392 34.3258ZM81.3392 33.9858C82.6426 33.9858 83.2942 32.0308 83.2942 28.1208C83.2942 24.2108 82.6426 22.2558 81.3392 22.2558C80.0359 22.2558 79.3842 24.2108 79.3842 28.1208C79.3842 32.0308 80.0359 33.9858 81.3392 33.9858ZM94.1775 24.2958V33.3058L95.5375 33.8158V34.0708H92.3075V33.8158L93.6675 33.3058V22.6808L92.4775 22.4258V22.1708H94.7725C95.3619 22.1708 95.8265 22.2955 96.1665 22.5448C96.5179 22.7828 96.8182 23.1398 97.0675 23.6158L100.774 30.7048L103.613 23.6158C103.805 23.1171 104.066 22.7545 104.395 22.5278C104.723 22.2898 105.228 22.1708 105.908 22.1708H107.693V22.4258L106.673 22.6808V33.5608L107.693 33.8158V34.0708H102.848V33.8158L103.868 33.5608V24.2958L99.8725 34.2408H99.3625L94.1775 24.2958ZM109.059 33.3058C109.059 32.6371 109.189 32.0308 109.45 31.4868C109.722 30.9315 110.05 30.4498 110.436 30.0418C110.821 29.6338 111.325 29.1521 111.949 28.5968C112.527 28.0868 112.98 27.6618 113.309 27.3218C113.637 26.9705 113.915 26.5795 114.142 26.1488C114.368 25.7068 114.482 25.2308 114.482 24.7208C114.482 23.9728 114.3 23.3891 113.938 22.9698C113.575 22.5505 113.105 22.3408 112.527 22.3408C112.198 22.3408 111.864 22.3861 111.524 22.4768L111.167 22.5958V25.3158L110.946 25.3668C110.764 25.3895 110.611 25.4008 110.487 25.4008C110.101 25.4008 109.79 25.2875 109.552 25.0608C109.325 24.8228 109.212 24.5111 109.212 24.1258C109.212 23.7631 109.348 23.4118 109.62 23.0718C109.903 22.7318 110.317 22.4541 110.861 22.2388C111.416 22.0235 112.085 21.9158 112.867 21.9158C114.397 21.9158 115.53 22.2218 116.267 22.8338C117.003 23.4458 117.372 24.3015 117.372 25.4008C117.372 26.0921 117.19 26.6871 116.828 27.1858C116.476 27.6845 116.04 28.0981 115.519 28.4268C115.009 28.7555 114.323 29.1295 113.462 29.5488C112.736 29.9001 112.147 30.2118 111.694 30.4838C111.252 30.7445 110.838 31.0618 110.453 31.4358C110.079 31.8098 109.812 32.2348 109.654 32.7108H115.944C116.023 32.0988 116.216 31.5888 116.522 31.1808C116.646 30.9881 116.794 30.8181 116.964 30.6708H117.474V34.0708H109.059V33.3058Z" fill="white"/>
<path fill-rule="evenodd" clip-rule="evenodd" d="M20.2502 12.3819C20.2502 12.171 20.4285 12 20.6483 12H49.3115C49.5313 12 49.7096 12.171 49.7096 12.3819V40.004C49.7096 40.2149 49.5313 40.3858 49.3115 40.3858C49.0916 40.3858 48.9134 40.2149 48.9134 40.004V12.7637H20.6483C20.4285 12.7637 20.2502 12.5928 20.2502 12.3819Z" fill="white" stroke="white" stroke-width="0.5"/>
<path d="M20.668 40.5618L20.793 40.5618L20.793 40.4368L20.793 16.678L22.4189 18.3039C22.622 18.507 22.9512 18.507 23.1542 18.3039C23.3573 18.1009 23.3573 17.7716 23.1542 17.5686L20.6407 15.0551C20.4377 14.852 20.1085 14.852 19.9054 15.0551L17.3919 17.5686C17.1889 17.7716 17.1889 18.1009 17.3919 18.3039C17.595 18.507 17.9242 18.507 18.1272 18.3039L19.7531 16.678L19.7531 40.4368L19.7531 40.5618L19.8781 40.5618L20.668 40.5618Z" fill="white" stroke="white" stroke-width="0.25"/>
<path d="M19.7521 40.8317V40.9567H19.8771L43.7603 40.9567L42.1261 42.5824C41.922 42.7855 41.922 43.1151 42.1261 43.3182C42.33 43.5209 42.6601 43.5209 42.8639 43.3182L45.3905 40.8047C45.5947 40.6016 45.5947 40.272 45.3905 40.0689L42.8639 37.5554C42.6601 37.3526 42.33 37.3526 42.1261 37.5554C41.922 37.7585 41.922 38.0881 42.1261 38.2912L43.7603 39.9168L19.8771 39.9168H19.7521V40.0418V40.8317Z" fill="white" stroke="white" stroke-width="0.25"/>
<path fill-rule="evenodd" clip-rule="evenodd" d="M31.1625 12.1157C31.3167 12.2699 31.3167 12.52 31.1625 12.6742L26.423 17.4137C26.2687 17.568 26.0186 17.568 25.8644 17.4137C25.7102 17.2595 25.7102 17.0094 25.8644 16.8552L30.6039 12.1157C30.7581 11.9614 31.0082 11.9614 31.1625 12.1157Z" fill="white" stroke="white" stroke-width="0.5" stroke-linecap="round" stroke-linejoin="round"/>
<path fill-rule="evenodd" clip-rule="evenodd" d="M49.4622 30.9421C49.6165 31.0963 49.6165 31.3464 49.4622 31.5007L45.1177 35.8452C44.9634 35.9994 44.7134 35.9994 44.5591 35.8452C44.4049 35.6909 44.4049 35.4409 44.5591 35.2866L48.9037 30.9421C49.0579 30.7879 49.308 30.7879 49.4622 30.9421Z" fill="white" stroke="white" stroke-width="0.5" stroke-linecap="round" stroke-linejoin="round"/>
<path fill-rule="evenodd" clip-rule="evenodd" d="M37.085 12.1139C37.2402 12.2672 37.2418 12.5172 37.0886 12.6725L26.8197 23.073C26.6664 23.2282 26.4163 23.2298 26.2611 23.0766C26.1059 22.9233 26.1043 22.6732 26.2576 22.518L36.5265 12.1175C36.6797 11.9622 36.9298 11.9607 37.085 12.1139Z" fill="white" stroke="white" stroke-width="0.5" stroke-linecap="round" stroke-linejoin="round"/>
<path fill-rule="evenodd" clip-rule="evenodd" d="M49.5938 24.3588C49.7481 24.5131 49.7481 24.7632 49.5938 24.9174L39.5882 34.923C39.434 35.0772 39.1839 35.0772 39.0297 34.923C38.8754 34.7688 38.8754 34.5187 39.0297 34.3644L49.0353 24.3588C49.1895 24.2046 49.4396 24.2046 49.5938 24.3588Z" fill="white" stroke="white" stroke-width="0.5" stroke-linecap="round" stroke-linejoin="round"/>
<path fill-rule="evenodd" clip-rule="evenodd" d="M43.4084 12.249C43.5614 12.4045 43.5594 12.6546 43.4039 12.8076L26.9473 29.0009C26.7918 29.1539 26.5418 29.1518 26.3888 28.9964C26.2358 28.8409 26.2378 28.5908 26.3933 28.4378L42.8499 12.2445C43.0053 12.0915 43.2554 12.0936 43.4084 12.249Z" fill="white" stroke="white" stroke-width="0.5" stroke-linecap="round" stroke-linejoin="round"/>
<path fill-rule="evenodd" clip-rule="evenodd" d="M49.5939 18.1716C49.7481 18.3258 49.7481 18.5759 49.5939 18.7301L33.0057 35.3184C32.8514 35.4726 32.6013 35.4726 32.4471 35.3184C32.2929 35.1641 32.2929 34.9141 32.4471 34.7598L49.0353 18.1716C49.1896 18.0173 49.4397 18.0173 49.5939 18.1716Z" fill="white" stroke="white" stroke-width="0.5" stroke-linecap="round" stroke-linejoin="round"/>
<path fill-rule="evenodd" clip-rule="evenodd" d="M49.3306 12.2468C49.4848 12.401 49.4848 12.6511 49.3306 12.8053L26.6863 35.4496C26.5321 35.6038 26.282 35.6038 26.1278 35.4496C25.9735 35.2954 25.9735 35.0453 26.1278 34.891L48.772 12.2468C48.9263 12.0925 49.1763 12.0925 49.3306 12.2468Z" fill="white" stroke="white" stroke-width="0.5" stroke-linecap="round" stroke-linejoin="round"/>
<path d="M200.409 34.0708V33.8158L201.599 33.4758V24.1428L199.814 25.4008L199.474 24.9758L202.568 22.1708H204.404V33.4758L205.594 33.8158V34.0708H200.409ZM206.785 33.3058C206.785 32.6371 206.915 32.0308 207.176 31.4868C207.448 30.9315 207.776 30.4498 208.162 30.0418C208.547 29.6338 209.051 29.1521 209.675 28.5968C210.253 28.0868 210.706 27.6618 211.035 27.3218C211.363 26.9705 211.641 26.5795 211.868 26.1488C212.094 25.7068 212.208 25.2308 212.208 24.7208C212.208 23.9728 212.026 23.3891 211.664 22.9698C211.301 22.5505 210.831 22.3408 210.253 22.3408C209.924 22.3408 209.59 22.3861 209.25 22.4768L208.893 22.5958V25.3158L208.672 25.3668C208.49 25.3895 208.337 25.4008 208.213 25.4008C207.827 25.4008 207.516 25.2875 207.278 25.0608C207.051 24.8228 206.938 24.5111 206.938 24.1258C206.938 23.7631 207.074 23.4118 207.346 23.0718C207.629 22.7318 208.043 22.4541 208.587 22.2388C209.142 22.0235 209.811 21.9158 210.593 21.9158C212.123 21.9158 213.256 22.2218 213.993 22.8338C214.729 23.4458 215.098 24.3015 215.098 25.4008C215.098 26.0921 214.916 26.6871 214.554 27.1858C214.202 27.6845 213.766 28.0981 213.245 28.4268C212.735 28.7555 212.049 29.1295 211.188 29.5488C210.462 29.9001 209.873 30.2118 209.42 30.4838C208.978 30.7445 208.564 31.0618 208.179 31.4358C207.805 31.8098 207.538 32.2348 207.38 32.7108H213.67C213.749 32.0988 213.942 31.5888 214.248 31.1808C214.372 30.9881 214.52 30.8181 214.69 30.6708H215.2V34.0708H206.785V33.3058ZM221.068 34.3258C219.64 34.3258 218.558 34.0425 217.821 33.4758C217.096 32.9091 216.733 32.1725 216.733 31.2658C216.733 30.6425 217.005 30.0418 217.549 29.4638C218.093 28.8745 218.756 28.4551 219.538 28.2058C218.79 27.7865 218.218 27.3275 217.821 26.8288C217.436 26.3188 217.243 25.7011 217.243 24.9758C217.243 24.0691 217.606 23.3325 218.331 22.7658C219.068 22.1991 220.15 21.9158 221.578 21.9158C222.292 21.9158 222.915 22.0461 223.448 22.3068C223.992 22.5675 224.411 22.9075 224.706 23.3268C225.001 23.7461 225.148 24.1825 225.148 24.6358C225.148 25.1685 224.916 25.6841 224.451 26.1828C223.998 26.6815 223.465 27.0158 222.853 27.1858C223.884 27.6391 224.666 28.1775 225.199 28.8008C225.732 29.4241 225.998 30.1891 225.998 31.0958C225.998 31.6851 225.817 32.2235 225.454 32.7108C225.091 33.1981 224.542 33.5891 223.805 33.8838C223.068 34.1785 222.156 34.3258 221.068 34.3258ZM222.343 26.8458C222.774 26.6531 223.119 26.3755 223.38 26.0128C223.652 25.6501 223.788 25.1911 223.788 24.6358C223.788 24.2278 223.686 23.8481 223.482 23.4968C223.289 23.1455 223.034 22.8678 222.717 22.6638C222.411 22.4485 222.088 22.3408 221.748 22.3408C221.261 22.3408 220.853 22.5335 220.524 22.9188C220.207 23.2928 220.048 23.8085 220.048 24.4658C220.048 25.3725 220.813 26.1658 222.343 26.8458ZM220.898 33.9008C221.623 33.9008 222.184 33.7025 222.581 33.3058C222.989 32.8978 223.193 32.3311 223.193 31.6058C223.193 31.0618 222.921 30.5121 222.377 29.9568C221.833 29.4015 221.113 28.9311 220.218 28.5458C219.583 28.7725 219.085 29.1125 218.722 29.5658C218.359 30.0078 218.178 30.5745 218.178 31.2658C218.178 31.7418 218.297 32.1838 218.535 32.5918C218.784 32.9885 219.113 33.3058 219.521 33.5438C219.94 33.7818 220.399 33.9008 220.898 33.9008ZM232.127 33.8158L233.147 33.5608V22.6808L232.127 22.4258V22.1708H236.462C238.49 22.1708 240.043 22.6921 241.12 23.7348C242.208 24.7775 242.752 26.2395 242.752 28.1208C242.752 30.0021 242.208 31.4641 241.12 32.5068C240.043 33.5495 238.49 34.0708 236.462 34.0708H232.127V33.8158ZM236.462 33.6458C237.516 33.6458 238.332 33.2208 238.91 32.3708C239.488 31.5095 239.777 30.0928 239.777 28.1208C239.777 26.1488 239.488 24.7378 238.91 23.8878C238.332 23.0265 237.516 22.5958 236.462 22.5958H235.952V33.6458H236.462ZM242.574 33.8158L243.934 33.3058L248.609 22.0008H249.119L253.964 33.5608L254.814 33.8158V34.0708H252.774C252.185 34.0708 251.703 33.9405 251.329 33.6798C250.955 33.4078 250.678 33.0565 250.496 32.6258L249.629 30.5858H245.566L244.444 33.3058L245.719 33.8158V34.0708H242.574V33.8158ZM245.736 30.1608H249.459L247.589 25.6898L245.736 30.1608ZM256.589 33.8158L257.609 33.5608V29.6508L254.124 22.6808L253.274 22.4258V22.1708H255.399C255.988 22.1708 256.458 22.2955 256.81 22.5448C257.172 22.7941 257.467 23.1511 257.694 23.6158L260.21 28.6308L262.794 22.9358L261.519 22.4258V22.1708H264.749V22.4258L263.389 22.9358L260.414 29.4808V33.5608L261.434 33.8158V34.0708H256.589V33.8158ZM269.08 34.3258C268.275 34.3258 267.521 34.1445 266.819 33.7818C266.501 33.6231 266.235 33.4361 266.02 33.2208C265.861 33.4815 265.663 33.7138 265.425 33.9178C265.221 34.0651 265.107 34.1445 265.085 34.1558H264.66V30.9258H265.34C265.51 31.4811 265.748 31.9798 266.054 32.4218C266.745 33.4078 267.64 33.9008 268.74 33.9008C269.386 33.9008 269.901 33.7081 270.287 33.3228C270.672 32.9375 270.865 32.4218 270.865 31.7758C270.865 31.4018 270.751 31.0675 270.525 30.7728C270.309 30.4781 270.037 30.2175 269.709 29.9908C269.38 29.7641 268.921 29.4808 268.332 29.1408C267.584 28.7215 266.977 28.3418 266.513 28.0018C266.048 27.6618 265.651 27.2368 265.323 26.7268C264.994 26.2055 264.83 25.5935 264.83 24.8908C264.83 24.3355 264.983 23.8368 265.289 23.3948C265.606 22.9415 266.076 22.5845 266.7 22.3238C267.323 22.0518 268.088 21.9158 268.995 21.9158C269.652 21.9158 270.309 22.1028 270.967 22.4768C271.216 22.6128 271.465 22.7941 271.715 23.0208C271.907 22.7261 272.106 22.4938 272.31 22.3238C272.514 22.1765 272.627 22.0971 272.65 22.0858H273.075V25.3158H272.395C272.247 24.7718 272.026 24.2788 271.732 23.8368C271.46 23.4061 271.12 23.0491 270.712 22.7658C270.315 22.4825 269.856 22.3408 269.335 22.3408C268.893 22.3408 268.513 22.5165 268.196 22.8678C267.878 23.2191 267.72 23.6668 267.72 24.2108C267.72 24.6301 267.839 25.0098 268.077 25.3498C268.326 25.6785 268.626 25.9675 268.978 26.2168C269.34 26.4661 269.828 26.7665 270.44 27.1178C271.154 27.5258 271.732 27.8885 272.174 28.2058C272.616 28.5231 272.99 28.9198 273.296 29.3958C273.602 29.8605 273.755 30.3988 273.755 31.0108C273.755 31.6228 273.579 32.1838 273.228 32.6938C272.876 33.1925 272.349 33.5891 271.647 33.8838C270.944 34.1785 270.088 34.3258 269.08 34.3258Z" fill="white"/>
<path d="M135.09 55.035L135.09 1" stroke="white" stroke-width="0.75"/>
<path d="M176.597 14.1987C176.334 12.946 175.193 12 173.829 12C173.517 12 173.264 12.2457 173.264 12.5497C173.264 12.8536 173.517 13.0993 173.829 13.0993C174.763 13.0993 175.524 13.8392 175.524 14.7484C175.524 15.6575 174.763 16.3974 173.829 16.3974C173.517 16.3974 173.264 16.6431 173.264 16.947C173.264 17.251 173.517 17.4967 173.829 17.4967C175.193 17.4967 176.334 16.5507 176.597 15.298H183.998V20.2451H153.491V15.298H161.4H163.095C163.407 15.298 163.66 15.0523 163.66 14.7484C163.66 14.4444 163.407 14.1987 163.095 14.1987H162.069C162.303 13.56 162.925 13.0993 163.66 13.0993C164.595 13.0993 165.355 13.8392 165.355 14.7484C165.355 15.6575 164.595 16.3974 163.66 16.3974C163.348 16.3974 163.095 16.6431 163.095 16.947C163.095 17.251 163.348 17.4967 163.66 17.4967C165.218 17.4967 166.485 16.2638 166.485 14.7484C166.485 13.2329 165.218 12 163.66 12C162.296 12 161.155 12.946 160.892 14.1987H152.361V21.3444V43.3313H185.128V21.3444V14.1987H176.597ZM183.998 42.232H153.491V21.3444H183.998V42.232Z" fill="white"/>
<path d="M167.05 13.0993C167.984 13.0993 168.745 13.8392 168.745 14.7484C168.745 15.6575 167.984 16.3974 167.05 16.3974C166.738 16.3974 166.485 16.6431 166.485 16.947C166.485 17.251 166.738 17.4967 167.05 17.4967C168.607 17.4967 169.874 16.2638 169.874 14.7484C169.874 13.2329 168.607 12 167.05 12C166.738 12 166.485 12.2457 166.485 12.5497C166.485 12.8536 166.738 13.0993 167.05 13.0993Z" fill="white"/>
<path d="M170.439 13.0993C171.374 13.0993 172.134 13.8392 172.134 14.7484C172.134 15.6575 171.374 16.3974 170.439 16.3974C170.128 16.3974 169.874 16.6431 169.874 16.947C169.874 17.251 170.128 17.4967 170.439 17.4967C171.997 17.4967 173.264 16.2638 173.264 14.7484C173.264 13.2329 171.997 12 170.439 12C170.128 12 169.874 12.2457 169.874 12.5497C169.874 12.8536 170.128 13.0993 170.439 13.0993Z" fill="white"/>
<path d="M157.446 25.7417H169.874C170.186 25.7417 170.439 25.496 170.439 25.192C170.439 24.888 170.186 24.6423 169.874 24.6423H157.446C157.134 24.6423 156.881 24.888 156.881 25.192C156.881 25.496 157.134 25.7417 157.446 25.7417Z" fill="white"/>
<path d="M180.043 33.4373H171.569C171.257 33.4373 171.004 33.683 171.004 33.9869C171.004 34.2909 171.257 34.5366 171.569 34.5366H180.043C180.355 34.5366 180.608 34.2909 180.608 33.9869C180.608 33.683 180.355 33.4373 180.043 33.4373Z" fill="white"/>
<path d="M157.446 30.1394H163.095C163.407 30.1394 163.66 29.8937 163.66 29.5897C163.66 29.2857 163.407 29.04 163.095 29.04H157.446C157.134 29.04 156.881 29.2857 156.881 29.5897C156.881 29.8937 157.134 30.1394 157.446 30.1394Z" fill="white"/>
<path d="M180.043 37.8347H174.394C174.082 37.8347 173.829 38.0804 173.829 38.3844C173.829 38.6884 174.082 38.9341 174.394 38.9341H180.043C180.355 38.9341 180.608 38.6884 180.608 38.3844C180.608 38.0804 180.355 37.8347 180.043 37.8347Z" fill="white"/>
<path d="M168.18 29.5897C168.18 29.8937 168.433 30.1394 168.745 30.1394H177.219C177.531 30.1394 177.784 29.8937 177.784 29.5897C177.784 29.2857 177.531 29.04 177.219 29.04H168.745C168.433 29.04 168.18 29.2857 168.18 29.5897Z" fill="white"/>
<path d="M166.321 29.9799C166.423 29.8755 166.485 29.7326 166.485 29.5897C166.485 29.4462 166.423 29.3033 166.321 29.1994C166.112 28.996 165.728 28.996 165.519 29.1994C165.417 29.3033 165.355 29.4462 165.355 29.5897C165.355 29.7326 165.417 29.8755 165.519 29.9799C165.626 30.0838 165.773 30.1393 165.92 30.1393C166.067 30.1393 166.214 30.0838 166.321 29.9799Z" fill="white"/>
<path d="M159.706 33.9869C159.706 34.2909 159.959 34.5366 160.27 34.5366H168.745C169.056 34.5366 169.31 34.2909 169.31 33.9869C169.31 33.683 169.056 33.4373 168.745 33.4373H160.27C159.959 33.4373 159.706 33.683 159.706 33.9869Z" fill="white"/>
<path d="M157.446 34.5366C157.593 34.5366 157.74 34.4762 157.847 34.3772C157.949 34.2728 158.011 34.1299 158.011 33.9869C158.011 33.8435 157.949 33.7006 157.847 33.6022C157.638 33.3933 157.254 33.3933 157.045 33.5967C156.943 33.7006 156.881 33.8435 156.881 33.9869C156.881 34.1299 156.943 34.2728 157.045 34.3772C157.152 34.4762 157.293 34.5366 157.446 34.5366Z" fill="white"/>
<path d="M180.043 30.1393C180.19 30.1393 180.337 30.0838 180.444 29.9799C180.552 29.8755 180.608 29.7326 180.608 29.5897C180.608 29.4462 180.552 29.3033 180.444 29.1994C180.23 28.996 179.851 28.996 179.642 29.1994C179.541 29.3033 179.478 29.4462 179.478 29.5897C179.478 29.7326 179.541 29.8755 179.642 29.9799C179.75 30.0838 179.896 30.1393 180.043 30.1393Z" fill="white"/>
<path d="M171.569 37.8347H157.446C157.134 37.8347 156.881 38.0804 156.881 38.3844C156.881 38.6884 157.134 38.9341 157.446 38.9341H171.569C171.881 38.9341 172.134 38.6884 172.134 38.3844C172.134 38.0804 171.881 37.8347 171.569 37.8347Z" fill="white"/>
<g opacity="0.05" clip-path="url(#clip1_1_5793)">
</g>
<g opacity="0.05" clip-path="url(#clip2_1_5793)">
</g>
</g>
<defs>
<filter id="filter0_d_1_5793" x="-50.0001" y="-440" width="476" height="528" filterUnits="userSpaceOnUse" color-interpolation-filters="sRGB">
<feFlood flood-opacity="0" result="BackgroundImageFix"/>
<feColorMatrix in="SourceAlpha" type="matrix" values="0 0 0 0 0 0 0 0 0 0 0 0 0 0 0 0 0 0 127 0" result="hardAlpha"/>
<feOffset dy="10"/>
<feGaussianBlur stdDeviation="25"/>
<feColorMatrix type="matrix" values="0 0 0 0 0 0 0 0 0 0 0 0 0 0 0 0 0 0 0.04 0"/>
<feBlend mode="normal" in2="BackgroundImageFix" result="effect1_dropShadow_1_5793"/>
<feBlend mode="normal" in="SourceGraphic" in2="effect1_dropShadow_1_5793" result="shape"/>
</filter>
<filter id="filter1_d_1_5793" x="-15.0001" y="-14" width="333.753" height="94" filterUnits="userSpaceOnUse" color-interpolation-filters="sRGB">
<feFlood flood-opacity="0" result="BackgroundImageFix"/>
<feColorMatrix in="SourceAlpha" type="matrix" values="0 0 0 0 0 0 0 0 0 0 0 0 0 0 0 0 0 0 127 0" result="hardAlpha"/>
<feOffset dx="5" dy="5"/>
<feGaussianBlur stdDeviation="10"/>
<feColorMatrix type="matrix" values="0 0 0 0 0.890196 0 0 0 0 0.721569 0 0 0 0 0.45098 0 0 0 0.5 0"/>
<feBlend mode="normal" in2="BackgroundImageFix" result="effect1_dropShadow_1_5793"/>
<feBlend mode="normal" in="SourceGraphic" in2="effect1_dropShadow_1_5793" result="shape"/>
</filter>
<clipPath id="clip0_1_5793">
<rect width="1440" height="3979" fill="white" transform="translate(-533 -2482)"/>
</clipPath>
<clipPath id="clip1_1_5793">
<rect width="1127" height="776" fill="white" transform="matrix(-1 0 0 1 1305 -349.678)"/>
</clipPath>
<clipPath id="clip2_1_5793">
<rect width="1127" height="776" fill="white" transform="translate(-931 -349.678)"/>
</clipPath>
</defs>
</svg>
