<svg width="294" height="52" viewBox="0 0 294 52" fill="none" xmlns="http://www.w3.org/2000/svg">
<g clip-path="url(#clip0_1_5793)">
<rect width="1440" height="3979" transform="translate(-103 -2485)" fill="white"/>
<g filter="url(#filter0_d_1_5793)">
<rect y="-403" width="376" height="428" fill="white"/>
</g>
<g filter="url(#filter1_d_1_5793)">
<rect y="-2" width="293.753" height="54" fill="#E3B873"/>
</g>
<path d="M69.0973 31.0703V30.8153L70.2873 30.4753V27.9253H65.4423L65.1023 27.4153L71.4773 19.0003H73.0923V27.1603H74.8773V27.9253H73.0923V30.4753L74.2823 30.8153V31.0703H69.0973ZM66.0373 27.1603H70.2873V21.5503L66.0373 27.1603ZM80.6586 31.3253C79.7406 31.3253 78.9076 31.0816 78.1596 30.5943C77.4116 30.107 76.8166 29.3986 76.3746 28.4693C75.944 27.5286 75.7286 26.4123 75.7286 25.1203C75.7286 23.8283 75.944 22.7176 76.3746 21.7883C76.8166 20.8476 77.4116 20.1336 78.1596 19.6463C78.9076 19.159 79.7406 18.9153 80.6586 18.9153C81.5766 18.9153 82.4096 19.159 83.1576 19.6463C83.9056 20.1336 84.495 20.8476 84.9256 21.7883C85.3676 22.7176 85.5886 23.8283 85.5886 25.1203C85.5886 26.4123 85.3676 27.5286 84.9256 28.4693C84.495 29.3986 83.9056 30.107 83.1576 30.5943C82.4096 31.0816 81.5766 31.3253 80.6586 31.3253ZM80.6586 30.9853C81.962 30.9853 82.6136 29.0303 82.6136 25.1203C82.6136 21.2103 81.962 19.2553 80.6586 19.2553C79.3553 19.2553 78.7036 21.2103 78.7036 25.1203C78.7036 29.0303 79.3553 30.9853 80.6586 30.9853ZM93.4969 21.2953V30.3053L94.8569 30.8153V31.0703H91.6269V30.8153L92.9869 30.3053V19.6803L91.9669 19.4253V19.1703H94.0919C94.6813 19.1703 95.1459 19.295 95.4859 19.5443C95.8373 19.7823 96.1376 20.1393 96.3869 20.6153L100.093 27.7043L102.932 20.6153C103.125 20.1166 103.385 19.754 103.714 19.5273C104.043 19.2893 104.547 19.1703 105.227 19.1703H107.012V19.4253L105.992 19.6803V30.5603L107.012 30.8153V31.0703H102.167V30.8153L103.187 30.5603V21.2953L99.1919 31.2403H98.6819L93.4969 21.2953ZM108.378 30.3053C108.378 29.6366 108.508 29.0303 108.769 28.4863C109.041 27.931 109.37 27.4493 109.755 27.0413C110.14 26.6333 110.645 26.1516 111.268 25.5963C111.846 25.0863 112.299 24.6613 112.628 24.3213C112.957 23.97 113.234 23.579 113.461 23.1483C113.688 22.7063 113.801 22.2303 113.801 21.7203C113.801 20.9723 113.62 20.3886 113.257 19.9693C112.894 19.55 112.424 19.3403 111.846 19.3403C111.517 19.3403 111.183 19.3856 110.843 19.4763L110.486 19.5953V22.3153L110.265 22.3663C110.084 22.389 109.931 22.4003 109.806 22.4003C109.421 22.4003 109.109 22.287 108.871 22.0603C108.644 21.8223 108.531 21.5106 108.531 21.1253C108.531 20.7626 108.667 20.4113 108.939 20.0713C109.222 19.7313 109.636 19.4536 110.18 19.2383C110.735 19.023 111.404 18.9153 112.186 18.9153C113.716 18.9153 114.849 19.2213 115.586 19.8333C116.323 20.4453 116.691 21.301 116.691 22.4003C116.691 23.0916 116.51 23.6866 116.147 24.1853C115.796 24.684 115.359 25.0976 114.838 25.4263C114.328 25.755 113.642 26.129 112.781 26.5483C112.056 26.8996 111.466 27.2113 111.013 27.4833C110.571 27.744 110.157 28.0613 109.772 28.4353C109.398 28.8093 109.132 29.2343 108.973 29.7103H115.263C115.342 29.0983 115.535 28.5883 115.841 28.1803C115.966 27.9876 116.113 27.8176 116.283 27.6703H116.793V31.0703H108.378V30.3053Z" fill="white"/>
<path fill-rule="evenodd" clip-rule="evenodd" d="M20.2503 9.38187C20.2503 9.17097 20.4285 9 20.6484 9H49.3115C49.5314 9 49.7096 9.17097 49.7096 9.38187V37.0039C49.7096 37.2148 49.5314 37.3858 49.3115 37.3858C49.0916 37.3858 48.9134 37.2148 48.9134 37.0039V9.76374H20.6484C20.4285 9.76374 20.2503 9.59277 20.2503 9.38187Z" fill="white" stroke="white" stroke-width="0.5" stroke-linecap="round" stroke-linejoin="round"/>
<path d="M20.6681 37.5623L20.7931 37.5623L20.7931 37.4373L20.7931 13.6786L22.419 15.3044C22.622 15.5075 22.9512 15.5075 23.1543 15.3044C23.3574 15.1014 23.3574 14.7722 23.1543 14.5691L20.6408 12.0556C20.4377 11.8526 20.1085 11.8526 19.9055 12.0556L17.392 14.5691C17.1889 14.7722 17.1889 15.1014 17.392 15.3044C17.595 15.5075 17.9243 15.5075 18.1273 15.3044L19.7532 13.6786L19.7532 37.4373L19.7532 37.5623L19.8782 37.5623L20.6681 37.5623Z" fill="white" stroke="white" stroke-width="0.25"/>
<path d="M19.7522 37.8315V37.9565H19.8772L43.7603 37.9565L42.1262 39.5821C41.922 39.7852 41.922 40.1148 42.1262 40.3179C42.33 40.5207 42.6602 40.5207 42.864 40.3179L45.3906 37.8044C45.5947 37.6013 45.5947 37.2717 45.3906 37.0686L42.864 34.5551C42.6602 34.3524 42.33 34.3524 42.1262 34.5551C41.922 34.7582 41.922 35.0878 42.1262 35.2909L43.7603 36.9166L19.8772 36.9166H19.7522V37.0416V37.8315Z" fill="white" stroke="white" stroke-width="0.25"/>
<path fill-rule="evenodd" clip-rule="evenodd" d="M31.1624 9.11568C31.3167 9.26992 31.3167 9.51999 31.1624 9.67423L26.423 14.4137C26.2687 14.568 26.0186 14.568 25.8644 14.4137C25.7102 14.2595 25.7102 14.0094 25.8644 13.8552L30.6039 9.11568C30.7581 8.96144 31.0082 8.96144 31.1624 9.11568Z" fill="white" stroke="white" stroke-width="0.5" stroke-linecap="round" stroke-linejoin="round"/>
<path fill-rule="evenodd" clip-rule="evenodd" d="M49.4623 27.9423C49.6165 28.0966 49.6165 28.3467 49.4623 28.5009L45.1177 32.8454C44.9635 32.9997 44.7134 32.9997 44.5592 32.8454C44.4049 32.6912 44.4049 32.4411 44.5592 32.2869L48.9037 27.9423C49.0579 27.7881 49.308 27.7881 49.4623 27.9423Z" fill="white" stroke="white" stroke-width="0.5" stroke-linecap="round" stroke-linejoin="round"/>
<path fill-rule="evenodd" clip-rule="evenodd" d="M37.0851 9.11391C37.2403 9.26716 37.2419 9.51723 37.0886 9.67245L26.8197 20.073C26.6665 20.2282 26.4164 20.2298 26.2612 20.0766C26.106 19.9233 26.1044 19.6732 26.2576 19.518L36.5265 9.11746C36.6798 8.96225 36.9299 8.96065 37.0851 9.11391Z" fill="white" stroke="white" stroke-width="0.5" stroke-linecap="round" stroke-linejoin="round"/>
<path fill-rule="evenodd" clip-rule="evenodd" d="M49.5938 21.3591C49.7481 21.5133 49.7481 21.7634 49.5938 21.9176L39.5882 31.9232C39.434 32.0775 39.1839 32.0775 39.0297 31.9232C38.8754 31.769 38.8754 31.5189 39.0297 31.3647L49.0353 21.3591C49.1895 21.2048 49.4396 21.2048 49.5938 21.3591Z" fill="white" stroke="white" stroke-width="0.5" stroke-linecap="round" stroke-linejoin="round"/>
<path fill-rule="evenodd" clip-rule="evenodd" d="M43.4084 9.24953C43.5614 9.40501 43.5594 9.65508 43.4039 9.80807L26.9474 26.0013C26.7919 26.1543 26.5418 26.1523 26.3888 25.9968C26.2358 25.8414 26.2379 25.5913 26.3933 25.4383L42.8499 9.24503C43.0054 9.09204 43.2554 9.09405 43.4084 9.24953Z" fill="white" stroke="white" stroke-width="0.5" stroke-linecap="round" stroke-linejoin="round"/>
<path fill-rule="evenodd" clip-rule="evenodd" d="M49.5939 15.1718C49.7482 15.3261 49.7482 15.5761 49.5939 15.7304L33.0057 32.3186C32.8515 32.4728 32.6014 32.4728 32.4472 32.3186C32.2929 32.1644 32.2929 31.9143 32.4472 31.7601L49.0354 15.1718C49.1896 15.0176 49.4397 15.0176 49.5939 15.1718Z" fill="white" stroke="white" stroke-width="0.5" stroke-linecap="round" stroke-linejoin="round"/>
<path fill-rule="evenodd" clip-rule="evenodd" d="M49.3306 9.24727C49.4849 9.40151 49.4849 9.65159 49.3306 9.80583L26.6864 32.4501C26.5321 32.6043 26.2821 32.6043 26.1278 32.4501C25.9736 32.2958 25.9736 32.0458 26.1278 31.8915L48.7721 9.24727C48.9263 9.09303 49.1764 9.09303 49.3306 9.24727Z" fill="white" stroke="white" stroke-width="0.5" stroke-linecap="round" stroke-linejoin="round"/>
<path d="M204.146 31.1387V30.8837L205.336 30.5437V27.9937H200.491L200.151 27.4837L206.526 19.0687H208.141V27.2287H209.926V27.9937H208.141V30.5437L209.331 30.8837V31.1387H204.146ZM201.086 27.2287H205.336V21.6187L201.086 27.2287ZM215.691 31.3937C214.263 31.3937 213.181 31.1103 212.444 30.5437C211.719 29.977 211.356 29.2403 211.356 28.3337C211.356 27.7103 211.628 27.1097 212.172 26.5317C212.716 25.9423 213.379 25.523 214.161 25.2737C213.413 24.8543 212.841 24.3953 212.444 23.8967C212.059 23.3867 211.866 22.769 211.866 22.0437C211.866 21.137 212.229 20.4003 212.954 19.8337C213.691 19.267 214.773 18.9837 216.201 18.9837C216.915 18.9837 217.538 19.114 218.071 19.3747C218.615 19.6353 219.034 19.9753 219.329 20.3947C219.624 20.814 219.771 21.2503 219.771 21.7037C219.771 22.2363 219.539 22.752 219.074 23.2507C218.621 23.7493 218.088 24.0837 217.476 24.2537C218.507 24.707 219.289 25.2453 219.822 25.8687C220.355 26.492 220.621 27.257 220.621 28.1637C220.621 28.753 220.44 29.2913 220.077 29.7787C219.714 30.266 219.165 30.657 218.428 30.9517C217.691 31.2463 216.779 31.3937 215.691 31.3937ZM216.966 23.9137C217.397 23.721 217.742 23.4433 218.003 23.0807C218.275 22.718 218.411 22.259 218.411 21.7037C218.411 21.2957 218.309 20.916 218.105 20.5647C217.912 20.2133 217.657 19.9357 217.34 19.7317C217.034 19.5163 216.711 19.4087 216.371 19.4087C215.884 19.4087 215.476 19.6013 215.147 19.9867C214.83 20.3607 214.671 20.8763 214.671 21.5337C214.671 22.4403 215.436 23.2337 216.966 23.9137ZM215.521 30.9687C216.246 30.9687 216.807 30.7703 217.204 30.3737C217.612 29.9657 217.816 29.399 217.816 28.6737C217.816 28.1297 217.544 27.58 217 27.0247C216.456 26.4693 215.736 25.999 214.841 25.6137C214.206 25.8403 213.708 26.1803 213.345 26.6337C212.982 27.0757 212.801 27.6423 212.801 28.3337C212.801 28.8097 212.92 29.2517 213.158 29.6597C213.407 30.0563 213.736 30.3737 214.144 30.6117C214.563 30.8497 215.022 30.9687 215.521 30.9687ZM226.75 30.8837L227.77 30.6287V19.7487L226.75 19.4937V19.2387H231.085C233.113 19.2387 234.666 19.76 235.743 20.8027C236.831 21.8453 237.375 23.3073 237.375 25.1887C237.375 27.07 236.831 28.532 235.743 29.5747C234.666 30.6173 233.113 31.1387 231.085 31.1387H226.75V30.8837ZM231.085 30.7137C232.139 30.7137 232.955 30.2887 233.533 29.4387C234.111 28.5773 234.4 27.1607 234.4 25.1887C234.4 23.2167 234.111 21.8057 233.533 20.9557C232.955 20.0943 232.139 19.6637 231.085 19.6637H230.575V30.7137H231.085ZM237.197 30.8837L238.557 30.3737L243.232 19.0687H243.742L248.587 30.6287L249.437 30.8837V31.1387H247.397C246.808 31.1387 246.326 31.0083 245.952 30.7477C245.578 30.4757 245.301 30.1243 245.119 29.6937L244.252 27.6537H240.189L239.067 30.3737L240.342 30.8837V31.1387H237.197V30.8837ZM240.359 27.2287H244.082L242.212 22.7577L240.359 27.2287ZM251.212 30.8837L252.232 30.6287V26.7187L248.747 19.7487L247.897 19.4937V19.2387H250.022C250.611 19.2387 251.081 19.3633 251.433 19.6127C251.795 19.862 252.09 20.219 252.317 20.6837L254.833 25.6987L257.417 20.0037L256.142 19.4937V19.2387H259.372V19.4937L258.012 20.0037L255.037 26.5487V30.6287L256.057 30.8837V31.1387H251.212V30.8837ZM263.703 31.3937C262.898 31.3937 262.144 31.2123 261.442 30.8497C261.124 30.691 260.858 30.504 260.643 30.2887C260.484 30.5493 260.286 30.7817 260.048 30.9857C259.844 31.133 259.73 31.2123 259.708 31.2237H259.283V27.9937H259.963C260.133 28.549 260.371 29.0477 260.677 29.4897C261.368 30.4757 262.263 30.9687 263.363 30.9687C264.009 30.9687 264.524 30.776 264.91 30.3907C265.295 30.0053 265.488 29.4897 265.488 28.8437C265.488 28.4697 265.374 28.1353 265.148 27.8407C264.932 27.546 264.66 27.2853 264.332 27.0587C264.003 26.832 263.544 26.5487 262.955 26.2087C262.207 25.7893 261.6 25.4097 261.136 25.0697C260.671 24.7297 260.274 24.3047 259.946 23.7947C259.617 23.2733 259.453 22.6613 259.453 21.9587C259.453 21.4033 259.606 20.9047 259.912 20.4627C260.229 20.0093 260.699 19.6523 261.323 19.3917C261.946 19.1197 262.711 18.9837 263.618 18.9837C264.275 18.9837 264.932 19.1707 265.59 19.5447C265.839 19.6807 266.088 19.862 266.338 20.0887C266.53 19.794 266.729 19.5617 266.933 19.3917C267.137 19.2443 267.25 19.165 267.273 19.1537H267.698V22.3837H267.018C266.87 21.8397 266.649 21.3467 266.355 20.9047C266.083 20.474 265.743 20.117 265.335 19.8337C264.938 19.5503 264.479 19.4087 263.958 19.4087C263.516 19.4087 263.136 19.5843 262.819 19.9357C262.501 20.287 262.343 20.7347 262.343 21.2787C262.343 21.698 262.462 22.0777 262.7 22.4177C262.949 22.7463 263.249 23.0353 263.601 23.2847C263.963 23.534 264.451 23.8343 265.063 24.1857C265.777 24.5937 266.355 24.9563 266.797 25.2737C267.239 25.591 267.613 25.9877 267.919 26.4637C268.225 26.9283 268.378 27.4667 268.378 28.0787C268.378 28.6907 268.202 29.2517 267.851 29.7617C267.499 30.2603 266.972 30.657 266.27 30.9517C265.567 31.2463 264.711 31.3937 263.703 31.3937Z" fill="white"/>
<path d="M135.09 52.035L135.09 -2" stroke="white" stroke-width="0.75"/>
<path d="M176.6 11.1997C176.337 9.94641 175.196 9 173.831 9C173.519 9 173.266 9.24581 173.266 9.54992C173.266 9.85402 173.519 10.0998 173.831 10.0998C174.766 10.0998 175.527 10.84 175.527 11.7496C175.527 12.6591 174.766 13.3993 173.831 13.3993C173.519 13.3993 173.266 13.6451 173.266 13.9492C173.266 14.2533 173.519 14.4992 173.831 14.4992C175.196 14.4992 176.337 13.5528 176.6 12.2995H184.005V17.2487H153.484V12.2995H161.397H163.093C163.405 12.2995 163.658 12.0537 163.658 11.7496C163.658 11.4455 163.405 11.1997 163.093 11.1997H162.066C162.3 10.5607 162.922 10.0998 163.658 10.0998C164.593 10.0998 165.353 10.84 165.353 11.7496C165.353 12.6591 164.593 13.3993 163.658 13.3993C163.346 13.3993 163.093 13.6451 163.093 13.9492C163.093 14.2533 163.346 14.4992 163.658 14.4992C165.216 14.4992 166.484 13.2657 166.484 11.7496C166.484 10.2335 165.216 9 163.658 9C162.293 9 161.152 9.94641 160.889 11.1997H152.354V18.3486V40.3452H185.135V18.3486V11.1997H176.6ZM184.005 39.2454H153.484V18.3486H184.005V39.2454Z" fill="white"/>
<path d="M167.049 10.0998C167.984 10.0998 168.745 10.84 168.745 11.7496C168.745 12.6591 167.984 13.3993 167.049 13.3993C166.737 13.3993 166.484 13.6451 166.484 13.9492C166.484 14.2533 166.737 14.4992 167.049 14.4992C168.607 14.4992 169.875 13.2657 169.875 11.7496C169.875 10.2335 168.607 9 167.049 9C166.737 9 166.484 9.24581 166.484 9.54992C166.484 9.85402 166.737 10.0998 167.049 10.0998Z" fill="white"/>
<path d="M170.44 10.0998C171.375 10.0998 172.136 10.84 172.136 11.7496C172.136 12.6591 171.375 13.3993 170.44 13.3993C170.128 13.3993 169.875 13.6451 169.875 13.9492C169.875 14.2533 170.128 14.4992 170.44 14.4992C171.998 14.4992 173.266 13.2657 173.266 11.7496C173.266 10.2335 171.998 9 170.44 9C170.128 9 169.875 9.24581 169.875 9.54992C169.875 9.85402 170.128 10.0998 170.44 10.0998Z" fill="white"/>
<path d="M157.441 22.7475H169.875C170.187 22.7475 170.44 22.5017 170.44 22.1976C170.44 21.8935 170.187 21.6477 169.875 21.6477H157.441C157.129 21.6477 156.876 21.8935 156.876 22.1976C156.876 22.5017 157.129 22.7475 157.441 22.7475Z" fill="white"/>
<path d="M180.048 30.4465H171.571C171.259 30.4465 171.005 30.6923 171.005 30.9964C171.005 31.3006 171.259 31.5464 171.571 31.5464H180.048C180.36 31.5464 180.614 31.3006 180.614 30.9964C180.614 30.6923 180.36 30.4465 180.048 30.4465Z" fill="white"/>
<path d="M157.441 27.1472H163.093C163.405 27.1472 163.658 26.9014 163.658 26.5973C163.658 26.2932 163.405 26.0474 163.093 26.0474H157.441C157.129 26.0474 156.876 26.2932 156.876 26.5973C156.876 26.9014 157.129 27.1472 157.441 27.1472Z" fill="white"/>
<path d="M180.048 34.8459H174.397C174.085 34.8459 173.831 35.0918 173.831 35.3959C173.831 35.7 174.085 35.9458 174.397 35.9458H180.048C180.36 35.9458 180.614 35.7 180.614 35.3959C180.614 35.0918 180.36 34.8459 180.048 34.8459Z" fill="white"/>
<path d="M168.179 26.5973C168.179 26.9014 168.433 27.1472 168.745 27.1472H177.222C177.534 27.1472 177.788 26.9014 177.788 26.5973C177.788 26.2932 177.534 26.0474 177.222 26.0474H168.745C168.433 26.0474 168.179 26.2932 168.179 26.5973Z" fill="white"/>
<path d="M166.32 26.9879C166.422 26.8834 166.484 26.7405 166.484 26.5975C166.484 26.454 166.422 26.311 166.32 26.207C166.111 26.0036 165.726 26.0036 165.517 26.207C165.416 26.311 165.353 26.454 165.353 26.5975C165.353 26.7405 165.416 26.8834 165.517 26.9879C165.625 27.0919 165.772 27.1474 165.919 27.1474C166.066 27.1474 166.213 27.0919 166.32 26.9879Z" fill="white"/>
<path d="M159.702 30.9964C159.702 31.3006 159.955 31.5464 160.267 31.5464H168.745C169.057 31.5464 169.31 31.3006 169.31 30.9964C169.31 30.6923 169.057 30.4465 168.745 30.4465H160.267C159.955 30.4465 159.702 30.6923 159.702 30.9964Z" fill="white"/>
<path d="M157.441 31.5469C157.588 31.5469 157.735 31.4864 157.842 31.3874C157.944 31.2829 158.006 31.1399 158.006 30.997C158.006 30.8534 157.944 30.7104 157.842 30.612C157.633 30.403 157.249 30.403 157.04 30.6065C156.938 30.7104 156.876 30.8534 156.876 30.997C156.876 31.1399 156.938 31.2829 157.04 31.3874C157.147 31.4864 157.288 31.5469 157.441 31.5469Z" fill="white"/>
<path d="M180.048 27.1474C180.195 27.1474 180.342 27.0919 180.45 26.9879C180.557 26.8834 180.614 26.7405 180.614 26.5975C180.614 26.454 180.557 26.311 180.45 26.207C180.235 26.0036 179.856 26.0036 179.647 26.207C179.545 26.311 179.483 26.454 179.483 26.5975C179.483 26.7405 179.545 26.8834 179.647 26.9879C179.755 27.0919 179.901 27.1474 180.048 27.1474Z" fill="white"/>
<path d="M171.571 34.8459H157.441C157.129 34.8459 156.876 35.0918 156.876 35.3959C156.876 35.7 157.129 35.9458 157.441 35.9458H171.571C171.883 35.9458 172.136 35.7 172.136 35.3959C172.136 35.0918 171.883 34.8459 171.571 34.8459Z" fill="white"/>
<g opacity="0.05" clip-path="url(#clip1_1_5793)">
</g>
</g>
<defs>
<filter id="filter0_d_1_5793" x="-50" y="-443" width="476" height="528" filterUnits="userSpaceOnUse" color-interpolation-filters="sRGB">
<feFlood flood-opacity="0" result="BackgroundImageFix"/>
<feColorMatrix in="SourceAlpha" type="matrix" values="0 0 0 0 0 0 0 0 0 0 0 0 0 0 0 0 0 0 127 0" result="hardAlpha"/>
<feOffset dy="10"/>
<feGaussianBlur stdDeviation="25"/>
<feColorMatrix type="matrix" values="0 0 0 0 0 0 0 0 0 0 0 0 0 0 0 0 0 0 0.04 0"/>
<feBlend mode="normal" in2="BackgroundImageFix" result="effect1_dropShadow_1_5793"/>
<feBlend mode="normal" in="SourceGraphic" in2="effect1_dropShadow_1_5793" result="shape"/>
</filter>
<filter id="filter1_d_1_5793" x="-15" y="-17" width="333.753" height="94" filterUnits="userSpaceOnUse" color-interpolation-filters="sRGB">
<feFlood flood-opacity="0" result="BackgroundImageFix"/>
<feColorMatrix in="SourceAlpha" type="matrix" values="0 0 0 0 0 0 0 0 0 0 0 0 0 0 0 0 0 0 127 0" result="hardAlpha"/>
<feOffset dx="5" dy="5"/>
<feGaussianBlur stdDeviation="10"/>
<feColorMatrix type="matrix" values="0 0 0 0 0.890196 0 0 0 0 0.721569 0 0 0 0 0.45098 0 0 0 0.5 0"/>
<feBlend mode="normal" in2="BackgroundImageFix" result="effect1_dropShadow_1_5793"/>
<feBlend mode="normal" in="SourceGraphic" in2="effect1_dropShadow_1_5793" result="shape"/>
</filter>
<clipPath id="clip0_1_5793">
<rect width="1440" height="3979" fill="white" transform="translate(-103 -2485)"/>
</clipPath>
<clipPath id="clip1_1_5793">
<rect width="1127" height="776" fill="white" transform="translate(-501 -352.678)"/>
</clipPath>
</defs>
</svg>
