<svg width="168" height="42" viewBox="0 0 168 42" fill="none" xmlns="http://www.w3.org/2000/svg">
<rect width="1436" height="2540" transform="translate(-635 -782)" fill="white"/>
<path d="M-637.447 -782C-637.447 -782 -198.625 -782 82.5527 -782C363.73 -782 802.553 -782 802.553 -782V292C240.198 292 -75.0923 292 -637.447 292V-782Z" fill="#131313"/>
<g filter="url(#filter0_d_1_2)">
</g>
<rect x="27.0005" y="19.8119" width="32" height="1.54334" rx="0.771672" fill="#E3B873"/>
<rect x="109" y="19.8119" width="32" height="1.54334" rx="0.771672" fill="#E3B873"/>
<path d="M100.851 15.7654L76.7306 6.82918C76.4221 6.71518 76.0793 6.87294 75.9655 7.1817C75.9653 7.18195 75.9653 7.1822 75.965 7.18245L73.2949 14.4506C73.1814 14.7594 73.3396 15.1019 73.6484 15.2154H73.6489L76.4448 16.2419L75.8288 17.9203C75.7155 18.229 75.8738 18.5711 76.1825 18.6846L81.7753 20.7379L81.3643 21.8567C80.9908 22.8588 81.3393 23.9868 82.2134 24.6031V27.6433H74.1974C73.8094 26.7562 73.0154 26.1122 72.0671 25.9157V24.6646C72.0671 24.3356 71.8006 24.0688 71.4713 24.0688H69.0694C68.7404 24.0688 68.4736 24.3356 68.4736 24.6646V34.1964C68.4736 34.5257 68.7404 34.7922 69.0694 34.7922H71.4713C71.8006 34.7922 72.0671 34.5257 72.0671 34.1964V32.9456C73.0154 32.7488 73.8094 32.105 74.1974 31.2177H82.2134V31.8135C82.2134 32.8006 83.0134 33.6009 84.0005 33.6009C84.9875 33.6009 85.7878 32.8006 85.7878 31.8135V25.2139C86.3293 24.9454 86.7476 24.4796 86.9561 23.9121L87.3671 22.7933L92.4004 24.6401C92.4662 24.6644 92.5354 24.6766 92.6054 24.6766C92.8552 24.6766 93.0787 24.5209 93.1649 24.2864L93.3882 23.6781C95.3268 24.0428 97.1939 22.767 97.5584 20.8287C97.6932 20.1124 97.6057 19.3721 97.3077 18.7071L100.919 16.8527C101.212 16.7027 101.328 16.3437 101.178 16.0509C101.11 15.9179 100.994 15.8154 100.854 15.7637L100.851 15.7654ZM83.4047 25.1459L83.898 25.3247C84.1225 25.4052 84.358 25.4514 84.5962 25.4617V27.6433H83.4047V25.1459ZM70.8758 33.6009H69.6652V25.2604H70.8758V33.6009ZM73.2586 30.0264C73.2576 30.7835 72.7806 31.4582 72.0671 31.7118V27.1495C72.7806 27.4028 73.2576 28.0776 73.2586 28.8349V30.0264ZM74.4687 28.8349H84.5962V30.0264H74.4687V28.8349ZM84.0005 32.4093C83.6714 32.4093 83.4047 32.1425 83.4047 31.8135V31.2177H84.5962V31.8135C84.5962 32.1425 84.3295 32.4093 84.0005 32.4093ZM86.2488 22.383L85.8378 23.5018C85.6108 24.1189 84.9265 24.4354 84.309 24.2089L83.1884 23.7983C82.5709 23.5716 82.2539 22.887 82.4806 22.2693C82.4806 22.2693 82.4806 22.2693 82.4806 22.269L82.8919 21.1509L85.9116 22.2595L86.2488 22.383ZM92.2521 23.3183L77.1523 17.7735L77.5636 16.6547L86.5111 19.9404C86.7229 20.0174 86.9604 19.9691 87.1251 19.8151L88.797 18.2413L93.4842 19.9629L92.2521 23.3183ZM96.2801 20.9899C95.9026 22.0077 94.8873 22.6438 93.807 22.539L94.7275 20.0314L96.2311 19.2571C96.4664 19.8076 96.4839 20.4272 96.2801 20.9899ZM94.2693 18.9301C94.2377 18.9328 94.2065 18.9383 94.1757 18.9466L88.8642 16.9962C88.6525 16.9185 88.4149 16.9667 88.2504 17.1212L86.5766 18.6953L74.6187 14.3041L76.8773 8.15425L99.1675 16.4124L94.2693 18.9301Z" fill="#E3B873"/>
<path d="M80.1292 14.7032L79.6038 16.1232M82.419 15.5433L81.8935 16.9632M84.641 16.3698L84.1155 17.7897" stroke="#E3B873" stroke-linecap="round"/>
<defs>
<filter id="filter0_d_1_2" x="-376" y="35.9999" width="917" height="534" filterUnits="userSpaceOnUse" color-interpolation-filters="sRGB">
<feFlood flood-opacity="0" result="BackgroundImageFix"/>
<feColorMatrix in="SourceAlpha" type="matrix" values="0 0 0 0 0 0 0 0 0 0 0 0 0 0 0 0 0 0 127 0" result="hardAlpha"/>
<feOffset dy="20"/>
<feGaussianBlur stdDeviation="25"/>
<feColorMatrix type="matrix" values="0 0 0 0 0 0 0 0 0 0 0 0 0 0 0 0 0 0 0.15 0"/>
<feBlend mode="normal" in2="BackgroundImageFix" result="effect1_dropShadow_1_2"/>
<feBlend mode="normal" in="SourceGraphic" in2="effect1_dropShadow_1_2" result="shape"/>
</filter>
</defs>
</svg>
