<svg width="227" height="53" viewBox="0 0 227 53" fill="none" xmlns="http://www.w3.org/2000/svg">
<rect width="1436" height="2540" transform="translate(-133 -2434)" fill="white"/>
<g filter="url(#filter0_d_1_2)">
<rect x="-2" y="-261" width="330" height="286" fill="white"/>
</g>
<g filter="url(#filter1_d_1_2)">
<rect x="-1.00024" y="-1.00024" width="228" height="54" fill="#E3B873"/>
</g>
<path d="M21.3402 31.7298L22.4202 31.4598V19.9398L21.3402 19.6698V19.3998H30.9702V22.6398H30.4302C30.2022 22.4598 30.0042 22.2318 29.8362 21.9558C29.4522 21.3078 29.2602 20.6058 29.2602 19.8498H25.3902V25.5198H27.4602C27.5442 25.0638 27.7002 24.6378 27.9282 24.2418C28.0242 24.0618 28.1382 23.8878 28.2702 23.7198H28.8102V27.7698H28.2702C28.1382 27.6018 28.0242 27.4278 27.9282 27.2478C27.7002 26.8518 27.5442 26.4258 27.4602 25.9698H25.3902V31.4598L26.4702 31.7298V31.9998H21.3402V31.7298ZM32.3265 31.7298L33.4065 31.4598V19.9398L32.3265 19.6698V19.3998H37.0965C39.1365 19.3998 40.6065 19.7118 41.5065 20.3358C42.4065 20.9478 42.8565 21.8058 42.8565 22.9098C42.8565 23.6538 42.6585 24.2598 42.2625 24.7278C41.8665 25.1838 41.3565 25.5258 40.7325 25.7538C40.0725 26.0058 39.3705 26.1378 38.6265 26.1498V26.2398C39.0705 26.2638 39.4605 26.3298 39.7965 26.4378C40.6365 26.7018 41.2065 27.1758 41.5065 27.8598L43.1265 31.4598L44.0265 31.7298V31.9998H41.5065C40.5225 31.9998 39.8025 31.4898 39.3465 30.4698L37.5465 26.4198H36.3765V31.4598L37.6365 31.7298V31.9998H32.3265V31.7298ZM37.0965 25.9698C37.9365 25.9698 38.5965 25.7058 39.0765 25.1778C39.5565 24.6498 39.7965 23.8938 39.7965 22.9098C39.7965 21.9258 39.5565 21.1698 39.0765 20.6418C38.5965 20.1138 37.9365 19.8498 37.0965 19.8498H36.3765V25.9698H37.0965ZM50.5142 32.2698C49.3382 32.2698 48.3062 32.0178 47.4182 31.5138C46.5422 30.9978 45.8642 30.2478 45.3842 29.2638C44.9042 28.2798 44.6642 27.0918 44.6642 25.6998C44.6642 24.3078 44.9042 23.1198 45.3842 22.1358C45.8642 21.1518 46.5422 20.4078 47.4182 19.9038C48.3062 19.3878 49.3382 19.1298 50.5142 19.1298C51.6902 19.1298 52.7162 19.3878 53.5922 19.9038C54.4802 20.4078 55.1642 21.1518 55.6442 22.1358C56.1242 23.1198 56.3642 24.3078 56.3642 25.6998C56.3642 27.0918 56.1242 28.2798 55.6442 29.2638C55.1642 30.2478 54.4802 30.9978 53.5922 31.5138C52.7162 32.0178 51.6902 32.2698 50.5142 32.2698ZM50.5142 31.9098C50.9822 31.9098 51.4142 31.7118 51.8102 31.3158C52.2182 30.9198 52.5542 30.2598 52.8182 29.3358C53.0822 28.4118 53.2142 27.1998 53.2142 25.6998C53.2142 24.1998 53.0822 22.9878 52.8182 22.0638C52.5542 21.1398 52.2182 20.4798 51.8102 20.0838C51.4142 19.6878 50.9822 19.4898 50.5142 19.4898C50.0462 19.4898 49.6082 19.6878 49.2002 20.0838C48.8042 20.4798 48.4742 21.1398 48.2102 22.0638C47.9462 22.9878 47.8142 24.1998 47.8142 25.6998C47.8142 27.1998 47.9462 28.4118 48.2102 29.3358C48.4742 30.2598 48.8042 30.9198 49.2002 31.3158C49.6082 31.7118 50.0462 31.9098 50.5142 31.9098ZM59.6985 21.6498V31.1898L61.1385 31.7298V31.9998H57.7185V31.7298L59.1585 31.1898V19.9398L58.0785 19.6698V19.3998H60.3285C60.9525 19.3998 61.4445 19.5318 61.8045 19.7958C62.1765 20.0478 62.4945 20.4258 62.7585 20.9298L66.6825 28.4358L69.6885 20.9298C69.8925 20.4018 70.1685 20.0178 70.5165 19.7778C70.8645 19.5258 71.3985 19.3998 72.1185 19.3998H74.0085V19.6698L72.9285 19.9398V31.4598L74.0085 31.7298V31.9998H68.8785V31.7298L69.9585 31.4598V21.6498L65.7285 32.1798H65.1885L59.6985 21.6498ZM84.9097 32.2698C84.2017 32.2698 83.5777 32.1558 83.0377 31.9278C82.5097 31.6878 82.1017 31.3878 81.8137 31.0278C81.5377 30.6678 81.3997 30.3018 81.3997 29.9298C81.3997 29.5218 81.5197 29.1978 81.7597 28.9578C82.0117 28.7058 82.3417 28.5798 82.7497 28.5798C82.8457 28.5798 82.9417 28.5918 83.0377 28.6158C83.1337 28.6278 83.1997 28.6338 83.2357 28.6338L83.4697 28.6698V31.5498L83.8117 31.6938C84.0277 31.7778 84.2737 31.8198 84.5497 31.8198C85.1377 31.8198 85.6177 31.6638 85.9897 31.3518C86.3617 31.0398 86.6497 30.4638 86.8537 29.6238C87.0577 28.7838 87.1597 27.5958 87.1597 26.0598C87.0517 26.2398 86.8837 26.4198 86.6557 26.5998C86.1997 26.9598 85.6777 27.1398 85.0897 27.1398C84.2137 27.1398 83.4457 26.9778 82.7857 26.6538C82.1377 26.3178 81.6397 25.8558 81.2917 25.2678C80.9437 24.6798 80.7697 24.0138 80.7697 23.2698C80.7697 21.9858 81.1657 20.9778 81.9577 20.2458C82.7617 19.5018 83.8957 19.1298 85.3597 19.1298C86.8717 19.1298 88.0597 19.6698 88.9237 20.7498C89.7877 21.8298 90.2197 23.4798 90.2197 25.6998C90.2197 27.8598 89.7457 29.4978 88.7977 30.6138C87.8617 31.7178 86.5657 32.2698 84.9097 32.2698ZM85.4497 26.6898C85.9417 26.6898 86.3317 26.4498 86.6197 25.9698C86.9197 25.4898 87.0697 24.7398 87.0697 23.7198C87.0697 22.1958 86.9017 21.1098 86.5657 20.4618C86.2417 19.8138 85.8397 19.4898 85.3597 19.4898C85.1197 19.4898 84.8797 19.6098 84.6397 19.8498C84.4117 20.0898 84.2197 20.4798 84.0637 21.0198C83.9077 21.5598 83.8297 22.2498 83.8297 23.0898C83.8297 23.9298 83.9077 24.6198 84.0637 25.1598C84.2317 25.6998 84.4357 26.0898 84.6757 26.3298C84.9277 26.5698 85.1857 26.6898 85.4497 26.6898ZM97.1518 32.2698C96.1798 32.2698 95.2978 32.0118 94.5058 31.4958C93.7138 30.9798 93.0838 30.2298 92.6158 29.2458C92.1598 28.2498 91.9318 27.0678 91.9318 25.6998C91.9318 24.3318 92.1598 23.1558 92.6158 22.1718C93.0838 21.1758 93.7138 20.4198 94.5058 19.9038C95.2978 19.3878 96.1798 19.1298 97.1518 19.1298C98.1238 19.1298 99.0058 19.3878 99.7978 19.9038C100.59 20.4198 101.214 21.1758 101.67 22.1718C102.138 23.1558 102.372 24.3318 102.372 25.6998C102.372 27.0678 102.138 28.2498 101.67 29.2458C101.214 30.2298 100.59 30.9798 99.7978 31.4958C99.0058 32.0118 98.1238 32.2698 97.1518 32.2698ZM97.1518 31.9098C98.5318 31.9098 99.2218 29.8398 99.2218 25.6998C99.2218 21.5598 98.5318 19.4898 97.1518 19.4898C95.7718 19.4898 95.0818 21.5598 95.0818 25.6998C95.0818 29.8398 95.7718 31.9098 97.1518 31.9098ZM109.21 32.2698C108.238 32.2698 107.356 32.0118 106.564 31.4958C105.772 30.9798 105.142 30.2298 104.674 29.2458C104.218 28.2498 103.99 27.0678 103.99 25.6998C103.99 24.3318 104.218 23.1558 104.674 22.1718C105.142 21.1758 105.772 20.4198 106.564 19.9038C107.356 19.3878 108.238 19.1298 109.21 19.1298C110.182 19.1298 111.064 19.3878 111.856 19.9038C112.648 20.4198 113.272 21.1758 113.728 22.1718C114.196 23.1558 114.43 24.3318 114.43 25.6998C114.43 27.0678 114.196 28.2498 113.728 29.2458C113.272 30.2298 112.648 30.9798 111.856 31.4958C111.064 32.0118 110.182 32.2698 109.21 32.2698ZM109.21 31.9098C110.59 31.9098 111.28 29.8398 111.28 25.6998C111.28 21.5598 110.59 19.4898 109.21 19.4898C107.83 19.4898 107.14 21.5598 107.14 25.6998C107.14 29.8398 107.83 31.9098 109.21 31.9098ZM121.184 31.7298L122.264 31.4598V19.9398L121.184 19.6698V19.3998H125.954C127.994 19.3998 129.464 19.7118 130.364 20.3358C131.264 20.9478 131.714 21.8058 131.714 22.9098C131.714 23.6538 131.516 24.2598 131.12 24.7278C130.724 25.1838 130.214 25.5258 129.59 25.7538C128.93 26.0058 128.228 26.1378 127.484 26.1498V26.2398C127.928 26.2638 128.318 26.3298 128.654 26.4378C129.494 26.7018 130.064 27.1758 130.364 27.8598L131.984 31.4598L132.884 31.7298V31.9998H130.364C129.38 31.9998 128.66 31.4898 128.204 30.4698L126.404 26.4198H125.234V31.4598L126.494 31.7298V31.9998H121.184V31.7298ZM125.954 25.9698C126.794 25.9698 127.454 25.7058 127.934 25.1778C128.414 24.6498 128.654 23.8938 128.654 22.9098C128.654 21.9258 128.414 21.1698 127.934 20.6418C127.454 20.1138 126.794 19.8498 125.954 19.8498H125.234V25.9698H125.954ZM139.822 32.2698C138.046 32.2698 136.702 31.8558 135.79 31.0278C134.878 30.1878 134.422 29.0118 134.422 27.4998V19.9398L133.342 19.6698V19.3998H138.472V19.6698L137.392 19.9398V27.4998C137.392 29.0478 137.632 30.1578 138.112 30.8298C138.592 31.4898 139.282 31.8198 140.182 31.8198C140.734 31.8198 141.256 31.6458 141.748 31.2978C142.252 30.9378 142.654 30.4338 142.954 29.7858C143.266 29.1258 143.422 28.3638 143.422 27.4998V20.2098L141.982 19.6698V19.3998H145.402V19.6698L143.962 20.2098V27.4998C143.962 28.4718 143.782 29.3178 143.422 30.0378C143.062 30.7578 142.57 31.3098 141.946 31.6938C141.322 32.0778 140.614 32.2698 139.822 32.2698ZM146.391 31.7298L147.471 31.4598V19.9398L146.391 19.6698V19.3998H151.251C153.075 19.3998 154.413 19.6938 155.265 20.2818C156.129 20.8578 156.561 21.6138 156.561 22.5498C156.561 23.1978 156.375 23.7198 156.003 24.1158C155.631 24.5118 155.157 24.8058 154.581 24.9978C153.969 25.2138 153.309 25.3278 152.601 25.3398V25.4298C153.477 25.4658 154.239 25.5978 154.887 25.8258C155.547 26.0418 156.093 26.3778 156.525 26.8338C156.969 27.2898 157.191 27.8718 157.191 28.5798C157.191 29.6478 156.753 30.4878 155.877 31.0998C155.001 31.6998 153.579 31.9998 151.611 31.9998H146.391V31.7298ZM151.251 25.1598C151.647 25.1598 152.013 25.0518 152.349 24.8358C152.697 24.6078 152.973 24.2958 153.177 23.8998C153.393 23.4918 153.501 23.0418 153.501 22.5498C153.501 22.0218 153.393 21.5538 153.177 21.1458C152.973 20.7378 152.697 20.4198 152.349 20.1918C152.013 19.9638 151.647 19.8498 151.251 19.8498H150.441V25.1598H151.251ZM151.611 31.5498C152.355 31.5498 152.961 31.2858 153.429 30.7578C153.897 30.2298 154.131 29.5038 154.131 28.5798C154.131 27.6558 153.897 26.9298 153.429 26.4018C152.961 25.8738 152.355 25.6098 151.611 25.6098H150.441V31.5498H151.611ZM162.41 32.8998L168.62 18.4998H169.43L163.22 32.8998H162.41ZM176.628 21.6498V31.1898L178.068 31.7298V31.9998H174.648V31.7298L176.088 31.1898V19.9398L175.008 19.6698V19.3998H177.258C177.882 19.3998 178.374 19.5318 178.734 19.7958C179.106 20.0478 179.424 20.4258 179.688 20.9298L183.612 28.4358L186.618 20.9298C186.822 20.4018 187.098 20.0178 187.446 19.7778C187.794 19.5258 188.328 19.3998 189.048 19.3998H190.938V19.6698L189.858 19.9398V31.4598L190.938 31.7298V31.9998H185.808V31.7298L186.888 31.4598V21.6498L182.658 32.1798H182.118L176.628 21.6498ZM192.384 31.1898C192.384 30.4818 192.522 29.8398 192.798 29.2638C193.086 28.6758 193.434 28.1658 193.842 27.7338C194.25 27.3018 194.784 26.7918 195.444 26.2038C196.056 25.6638 196.536 25.2138 196.884 24.8538C197.232 24.4818 197.526 24.0678 197.766 23.6118C198.006 23.1438 198.126 22.6398 198.126 22.0998C198.126 21.3078 197.934 20.6898 197.55 20.2458C197.166 19.8018 196.668 19.5798 196.056 19.5798C195.708 19.5798 195.354 19.6278 194.994 19.7238L194.616 19.8498V22.7298L194.382 22.7838C194.19 22.8078 194.028 22.8198 193.896 22.8198C193.488 22.8198 193.158 22.6998 192.906 22.4598C192.666 22.2078 192.546 21.8778 192.546 21.4698C192.546 21.0858 192.69 20.7138 192.978 20.3538C193.278 19.9938 193.716 19.6998 194.292 19.4718C194.88 19.2438 195.588 19.1298 196.416 19.1298C198.036 19.1298 199.236 19.4538 200.016 20.1018C200.796 20.7498 201.186 21.6558 201.186 22.8198C201.186 23.5518 200.994 24.1818 200.61 24.7098C200.238 25.2378 199.776 25.6758 199.224 26.0238C198.684 26.3718 197.958 26.7678 197.046 27.2118C196.278 27.5838 195.654 27.9138 195.174 28.2018C194.706 28.4778 194.268 28.8138 193.86 29.2098C193.464 29.6058 193.182 30.0558 193.014 30.5598H199.674C199.758 29.9118 199.962 29.3718 200.286 28.9398C200.418 28.7358 200.574 28.5558 200.754 28.3998H201.294V31.9998H192.384V31.1898Z" fill="white"/>
<defs>
<filter id="filter0_d_1_2" x="-12" y="-271" width="370" height="326" filterUnits="userSpaceOnUse" color-interpolation-filters="sRGB">
<feFlood flood-opacity="0" result="BackgroundImageFix"/>
<feColorMatrix in="SourceAlpha" type="matrix" values="0 0 0 0 0 0 0 0 0 0 0 0 0 0 0 0 0 0 127 0" result="hardAlpha"/>
<feOffset dx="10" dy="10"/>
<feGaussianBlur stdDeviation="10"/>
<feColorMatrix type="matrix" values="0 0 0 0 0 0 0 0 0 0 0 0 0 0 0 0 0 0 0.03 0"/>
<feBlend mode="normal" in2="BackgroundImageFix" result="effect1_dropShadow_1_2"/>
<feBlend mode="normal" in="SourceGraphic" in2="effect1_dropShadow_1_2" result="shape"/>
</filter>
<filter id="filter1_d_1_2" x="-6.00024" y="-6.00024" width="248" height="74" filterUnits="userSpaceOnUse" color-interpolation-filters="sRGB">
<feFlood flood-opacity="0" result="BackgroundImageFix"/>
<feColorMatrix in="SourceAlpha" type="matrix" values="0 0 0 0 0 0 0 0 0 0 0 0 0 0 0 0 0 0 127 0" result="hardAlpha"/>
<feOffset dx="5" dy="5"/>
<feGaussianBlur stdDeviation="5"/>
<feColorMatrix type="matrix" values="0 0 0 0 0.890196 0 0 0 0 0.721569 0 0 0 0 0.45098 0 0 0 0.3 0"/>
<feBlend mode="normal" in2="BackgroundImageFix" result="effect1_dropShadow_1_2"/>
<feBlend mode="normal" in="SourceGraphic" in2="effect1_dropShadow_1_2" result="shape"/>
</filter>
</defs>
</svg>
