<svg width="227" height="54" viewBox="0 0 227 54" fill="none" xmlns="http://www.w3.org/2000/svg">
<rect width="1436" height="2540" transform="translate(-976 -2433)" fill="white"/>
<g filter="url(#filter0_d_1_2)">
<rect x="-1.00024" y="-260" width="330" height="286" fill="white"/>
</g>
<g filter="url(#filter1_d_1_2)">
<rect x="-1.00024" y="-0.000244141" width="228" height="54" fill="#E3B873"/>
</g>
<path d="M16.473 32.7298L17.553 32.4598V20.9398L16.473 20.6698V20.3998H26.103V23.6398H25.563C25.335 23.4598 25.137 23.2318 24.969 22.9558C24.585 22.3078 24.393 21.6058 24.393 20.8498H20.523V26.5198H22.593C22.677 26.0638 22.833 25.6378 23.061 25.2418C23.157 25.0618 23.271 24.8878 23.403 24.7198H23.943V28.7698H23.403C23.271 28.6018 23.157 28.4278 23.061 28.2478C22.833 27.8518 22.677 27.4258 22.593 26.9698H20.523V32.4598L21.603 32.7298V32.9998H16.473V32.7298ZM27.4593 32.7298L28.5393 32.4598V20.9398L27.4593 20.6698V20.3998H32.2293C34.2693 20.3998 35.7393 20.7118 36.6393 21.3358C37.5393 21.9478 37.9893 22.8058 37.9893 23.9098C37.9893 24.6538 37.7913 25.2598 37.3953 25.7278C36.9993 26.1838 36.4893 26.5258 35.8653 26.7538C35.2053 27.0058 34.5033 27.1378 33.7593 27.1498V27.2398C34.2033 27.2638 34.5933 27.3298 34.9293 27.4378C35.7693 27.7018 36.3393 28.1758 36.6393 28.8598L38.2593 32.4598L39.1593 32.7298V32.9998H36.6393C35.6553 32.9998 34.9353 32.4898 34.4793 31.4698L32.6793 27.4198H31.5093V32.4598L32.7693 32.7298V32.9998H27.4593V32.7298ZM32.2293 26.9698C33.0693 26.9698 33.7293 26.7058 34.2093 26.1778C34.6893 25.6498 34.9293 24.8938 34.9293 23.9098C34.9293 22.9258 34.6893 22.1698 34.2093 21.6418C33.7293 21.1138 33.0693 20.8498 32.2293 20.8498H31.5093V26.9698H32.2293ZM45.6471 33.2698C44.4711 33.2698 43.4391 33.0178 42.5511 32.5138C41.6751 31.9978 40.9971 31.2478 40.5171 30.2638C40.0371 29.2798 39.7971 28.0918 39.7971 26.6998C39.7971 25.3078 40.0371 24.1198 40.5171 23.1358C40.9971 22.1518 41.6751 21.4078 42.5511 20.9038C43.4391 20.3878 44.4711 20.1298 45.6471 20.1298C46.8231 20.1298 47.8491 20.3878 48.7251 20.9038C49.6131 21.4078 50.2971 22.1518 50.7771 23.1358C51.2571 24.1198 51.4971 25.3078 51.4971 26.6998C51.4971 28.0918 51.2571 29.2798 50.7771 30.2638C50.2971 31.2478 49.6131 31.9978 48.7251 32.5138C47.8491 33.0178 46.8231 33.2698 45.6471 33.2698ZM45.6471 32.9098C46.1151 32.9098 46.5471 32.7118 46.9431 32.3158C47.3511 31.9198 47.6871 31.2598 47.9511 30.3358C48.2151 29.4118 48.3471 28.1998 48.3471 26.6998C48.3471 25.1998 48.2151 23.9878 47.9511 23.0638C47.6871 22.1398 47.3511 21.4798 46.9431 21.0838C46.5471 20.6878 46.1151 20.4898 45.6471 20.4898C45.1791 20.4898 44.7411 20.6878 44.3331 21.0838C43.9371 21.4798 43.6071 22.1398 43.3431 23.0638C43.0791 23.9878 42.9471 25.1998 42.9471 26.6998C42.9471 28.1998 43.0791 29.4118 43.3431 30.3358C43.6071 31.2598 43.9371 31.9198 44.3331 32.3158C44.7411 32.7118 45.1791 32.9098 45.6471 32.9098ZM54.8313 22.6498V32.1898L56.2713 32.7298V32.9998H52.8513V32.7298L54.2913 32.1898V20.9398L53.2113 20.6698V20.3998H55.4613C56.0853 20.3998 56.5773 20.5318 56.9373 20.7958C57.3093 21.0478 57.6273 21.4258 57.8913 21.9298L61.8153 29.4358L64.8213 21.9298C65.0253 21.4018 65.3013 21.0178 65.6493 20.7778C65.9973 20.5258 66.5313 20.3998 67.2513 20.3998H69.1413V20.6698L68.0613 20.9398V32.4598L69.1413 32.7298V32.9998H64.0113V32.7298L65.0913 32.4598V22.6498L60.8613 33.1798H60.3213L54.8313 22.6498ZM79.3225 32.9998V32.7298L80.5825 32.3698V29.6698H75.4525L75.0925 29.1298L81.8425 20.2198H83.5525V28.8598H85.4425V29.6698H83.5525V32.3698L84.8125 32.7298V32.9998H79.3225ZM76.0825 28.8598H80.5825V22.9198L76.0825 28.8598ZM91.5639 33.2698C90.5919 33.2698 89.7099 33.0118 88.9179 32.4958C88.1259 31.9798 87.4959 31.2298 87.0279 30.2458C86.5719 29.2498 86.3439 28.0678 86.3439 26.6998C86.3439 25.3318 86.5719 24.1558 87.0279 23.1718C87.4959 22.1758 88.1259 21.4198 88.9179 20.9038C89.7099 20.3878 90.5919 20.1298 91.5639 20.1298C92.5359 20.1298 93.4179 20.3878 94.2099 20.9038C95.0019 21.4198 95.6259 22.1758 96.0819 23.1718C96.5499 24.1558 96.7839 25.3318 96.7839 26.6998C96.7839 28.0678 96.5499 29.2498 96.0819 30.2458C95.6259 31.2298 95.0019 31.9798 94.2099 32.4958C93.4179 33.0118 92.5359 33.2698 91.5639 33.2698ZM91.5639 32.9098C92.9439 32.9098 93.6339 30.8398 93.6339 26.6998C93.6339 22.5598 92.9439 20.4898 91.5639 20.4898C90.1839 20.4898 89.4939 22.5598 89.4939 26.6998C89.4939 30.8398 90.1839 32.9098 91.5639 32.9098ZM103.623 33.2698C102.651 33.2698 101.769 33.0118 100.977 32.4958C100.185 31.9798 99.5545 31.2298 99.0865 30.2458C98.6305 29.2498 98.4025 28.0678 98.4025 26.6998C98.4025 25.3318 98.6305 24.1558 99.0865 23.1718C99.5545 22.1758 100.185 21.4198 100.977 20.9038C101.769 20.3878 102.651 20.1298 103.623 20.1298C104.595 20.1298 105.477 20.3878 106.269 20.9038C107.061 21.4198 107.685 22.1758 108.141 23.1718C108.609 24.1558 108.843 25.3318 108.843 26.6998C108.843 28.0678 108.609 29.2498 108.141 30.2458C107.685 31.2298 107.061 31.9798 106.269 32.4958C105.477 33.0118 104.595 33.2698 103.623 33.2698ZM103.623 32.9098C105.003 32.9098 105.693 30.8398 105.693 26.6998C105.693 22.5598 105.003 20.4898 103.623 20.4898C102.243 20.4898 101.553 22.5598 101.553 26.6998C101.553 30.8398 102.243 32.9098 103.623 32.9098ZM115.681 33.2698C114.709 33.2698 113.827 33.0118 113.035 32.4958C112.243 31.9798 111.613 31.2298 111.145 30.2458C110.689 29.2498 110.461 28.0678 110.461 26.6998C110.461 25.3318 110.689 24.1558 111.145 23.1718C111.613 22.1758 112.243 21.4198 113.035 20.9038C113.827 20.3878 114.709 20.1298 115.681 20.1298C116.653 20.1298 117.535 20.3878 118.327 20.9038C119.119 21.4198 119.743 22.1758 120.199 23.1718C120.667 24.1558 120.901 25.3318 120.901 26.6998C120.901 28.0678 120.667 29.2498 120.199 30.2458C119.743 31.2298 119.119 31.9798 118.327 32.4958C117.535 33.0118 116.653 33.2698 115.681 33.2698ZM115.681 32.9098C117.061 32.9098 117.751 30.8398 117.751 26.6998C117.751 22.5598 117.061 20.4898 115.681 20.4898C114.301 20.4898 113.611 22.5598 113.611 26.6998C113.611 30.8398 114.301 32.9098 115.681 32.9098ZM127.655 32.7298L128.735 32.4598V20.9398L127.655 20.6698V20.3998H132.425C134.465 20.3998 135.935 20.7118 136.835 21.3358C137.735 21.9478 138.185 22.8058 138.185 23.9098C138.185 24.6538 137.987 25.2598 137.591 25.7278C137.195 26.1838 136.685 26.5258 136.061 26.7538C135.401 27.0058 134.699 27.1378 133.955 27.1498V27.2398C134.399 27.2638 134.789 27.3298 135.125 27.4378C135.965 27.7018 136.535 28.1758 136.835 28.8598L138.455 32.4598L139.355 32.7298V32.9998H136.835C135.851 32.9998 135.131 32.4898 134.675 31.4698L132.875 27.4198H131.705V32.4598L132.965 32.7298V32.9998H127.655V32.7298ZM132.425 26.9698C133.265 26.9698 133.925 26.7058 134.405 26.1778C134.885 25.6498 135.125 24.8938 135.125 23.9098C135.125 22.9258 134.885 22.1698 134.405 21.6418C133.925 21.1138 133.265 20.8498 132.425 20.8498H131.705V26.9698H132.425ZM146.292 33.2698C144.516 33.2698 143.172 32.8558 142.26 32.0278C141.348 31.1878 140.892 30.0118 140.892 28.4998V20.9398L139.812 20.6698V20.3998H144.942V20.6698L143.862 20.9398V28.4998C143.862 30.0478 144.102 31.1578 144.582 31.8298C145.062 32.4898 145.752 32.8198 146.652 32.8198C147.204 32.8198 147.726 32.6458 148.218 32.2978C148.722 31.9378 149.124 31.4338 149.424 30.7858C149.736 30.1258 149.892 29.3638 149.892 28.4998V21.2098L148.452 20.6698V20.3998H151.872V20.6698L150.432 21.2098V28.4998C150.432 29.4718 150.252 30.3178 149.892 31.0378C149.532 31.7578 149.04 32.3098 148.416 32.6938C147.792 33.0778 147.084 33.2698 146.292 33.2698ZM152.862 32.7298L153.942 32.4598V20.9398L152.862 20.6698V20.3998H157.722C159.546 20.3998 160.884 20.6938 161.736 21.2818C162.6 21.8578 163.032 22.6138 163.032 23.5498C163.032 24.1978 162.846 24.7198 162.474 25.1158C162.102 25.5118 161.628 25.8058 161.052 25.9978C160.44 26.2138 159.78 26.3278 159.072 26.3398V26.4298C159.948 26.4658 160.71 26.5978 161.358 26.8258C162.018 27.0418 162.564 27.3778 162.996 27.8338C163.44 28.2898 163.662 28.8718 163.662 29.5798C163.662 30.6478 163.224 31.4878 162.348 32.0998C161.472 32.6998 160.05 32.9998 158.082 32.9998H152.862V32.7298ZM157.722 26.1598C158.118 26.1598 158.484 26.0518 158.82 25.8358C159.168 25.6078 159.444 25.2958 159.648 24.8998C159.864 24.4918 159.972 24.0418 159.972 23.5498C159.972 23.0218 159.864 22.5538 159.648 22.1458C159.444 21.7378 159.168 21.4198 158.82 21.1918C158.484 20.9638 158.118 20.8498 157.722 20.8498H156.912V26.1598H157.722ZM158.082 32.5498C158.826 32.5498 159.432 32.2858 159.9 31.7578C160.368 31.2298 160.602 30.5038 160.602 29.5798C160.602 28.6558 160.368 27.9298 159.9 27.4018C159.432 26.8738 158.826 26.6098 158.082 26.6098H156.912V32.5498H158.082ZM168.881 33.8998L175.091 19.4998H175.901L169.691 33.8998H168.881ZM183.099 22.6498V32.1898L184.539 32.7298V32.9998H181.119V32.7298L182.559 32.1898V20.9398L181.479 20.6698V20.3998H183.729C184.353 20.3998 184.845 20.5318 185.205 20.7958C185.577 21.0478 185.895 21.4258 186.159 21.9298L190.083 29.4358L193.089 21.9298C193.293 21.4018 193.569 21.0178 193.917 20.7778C194.265 20.5258 194.799 20.3998 195.519 20.3998H197.409V20.6698L196.329 20.9398V32.4598L197.409 32.7298V32.9998H192.279V32.7298L193.359 32.4598V22.6498L189.129 33.1798H188.589L183.099 22.6498ZM198.855 32.1898C198.855 31.4818 198.993 30.8398 199.269 30.2638C199.557 29.6758 199.905 29.1658 200.313 28.7338C200.721 28.3018 201.255 27.7918 201.915 27.2038C202.527 26.6638 203.007 26.2138 203.355 25.8538C203.703 25.4818 203.997 25.0678 204.237 24.6118C204.477 24.1438 204.597 23.6398 204.597 23.0998C204.597 22.3078 204.405 21.6898 204.021 21.2458C203.637 20.8018 203.139 20.5798 202.527 20.5798C202.179 20.5798 201.825 20.6278 201.465 20.7238L201.087 20.8498V23.7298L200.853 23.7838C200.661 23.8078 200.499 23.8198 200.367 23.8198C199.959 23.8198 199.629 23.6998 199.377 23.4598C199.137 23.2078 199.017 22.8778 199.017 22.4698C199.017 22.0858 199.161 21.7138 199.449 21.3538C199.749 20.9938 200.187 20.6998 200.763 20.4718C201.351 20.2438 202.059 20.1298 202.887 20.1298C204.507 20.1298 205.707 20.4538 206.487 21.1018C207.267 21.7498 207.657 22.6558 207.657 23.8198C207.657 24.5518 207.465 25.1818 207.081 25.7098C206.709 26.2378 206.247 26.6758 205.695 27.0238C205.155 27.3718 204.429 27.7678 203.517 28.2118C202.749 28.5838 202.125 28.9138 201.645 29.2018C201.177 29.4778 200.739 29.8138 200.331 30.2098C199.935 30.6058 199.653 31.0558 199.485 31.5598H206.145C206.229 30.9118 206.433 30.3718 206.757 29.9398C206.889 29.7358 207.045 29.5558 207.225 29.3998H207.765V32.9998H198.855V32.1898Z" fill="white"/>
<defs>
<filter id="filter0_d_1_2" x="-11.0002" y="-270" width="370" height="326" filterUnits="userSpaceOnUse" color-interpolation-filters="sRGB">
<feFlood flood-opacity="0" result="BackgroundImageFix"/>
<feColorMatrix in="SourceAlpha" type="matrix" values="0 0 0 0 0 0 0 0 0 0 0 0 0 0 0 0 0 0 127 0" result="hardAlpha"/>
<feOffset dx="10" dy="10"/>
<feGaussianBlur stdDeviation="10"/>
<feColorMatrix type="matrix" values="0 0 0 0 0 0 0 0 0 0 0 0 0 0 0 0 0 0 0.03 0"/>
<feBlend mode="normal" in2="BackgroundImageFix" result="effect1_dropShadow_1_2"/>
<feBlend mode="normal" in="SourceGraphic" in2="effect1_dropShadow_1_2" result="shape"/>
</filter>
<filter id="filter1_d_1_2" x="-6.00024" y="-5.00024" width="248" height="74" filterUnits="userSpaceOnUse" color-interpolation-filters="sRGB">
<feFlood flood-opacity="0" result="BackgroundImageFix"/>
<feColorMatrix in="SourceAlpha" type="matrix" values="0 0 0 0 0 0 0 0 0 0 0 0 0 0 0 0 0 0 127 0" result="hardAlpha"/>
<feOffset dx="5" dy="5"/>
<feGaussianBlur stdDeviation="5"/>
<feColorMatrix type="matrix" values="0 0 0 0 0.890196 0 0 0 0 0.721569 0 0 0 0 0.45098 0 0 0 0.3 0"/>
<feBlend mode="normal" in2="BackgroundImageFix" result="effect1_dropShadow_1_2"/>
<feBlend mode="normal" in="SourceGraphic" in2="effect1_dropShadow_1_2" result="shape"/>
</filter>
</defs>
</svg>
