<svg width="228" height="54" viewBox="0 0 228 54" fill="none" xmlns="http://www.w3.org/2000/svg">
<rect width="1436" height="2540" transform="translate(-553 -2433)" fill="white"/>
<g filter="url(#filter0_d_1_2)">
<rect y="-260" width="330" height="286" fill="white"/>
</g>
<g filter="url(#filter1_d_1_2)">
<rect x="-0.000244141" y="-0.000244141" width="228" height="54" fill="#E3B873"/>
</g>
<path d="M19.362 32.7298L20.442 32.4598V20.9398L19.362 20.6698V20.3998H28.992V23.6398H28.452C28.224 23.4598 28.026 23.2318 27.858 22.9558C27.474 22.3078 27.282 21.6058 27.282 20.8498H23.412V26.5198H25.482C25.566 26.0638 25.722 25.6378 25.95 25.2418C26.046 25.0618 26.16 24.8878 26.292 24.7198H26.832V28.7698H26.292C26.16 28.6018 26.046 28.4278 25.95 28.2478C25.722 27.8518 25.566 27.4258 25.482 26.9698H23.412V32.4598L24.492 32.7298V32.9998H19.362V32.7298ZM30.3483 32.7298L31.4283 32.4598V20.9398L30.3483 20.6698V20.3998H35.1183C37.1583 20.3998 38.6283 20.7118 39.5283 21.3358C40.4283 21.9478 40.8783 22.8058 40.8783 23.9098C40.8783 24.6538 40.6803 25.2598 40.2843 25.7278C39.8883 26.1838 39.3783 26.5258 38.7543 26.7538C38.0943 27.0058 37.3923 27.1378 36.6483 27.1498V27.2398C37.0923 27.2638 37.4823 27.3298 37.8183 27.4378C38.6583 27.7018 39.2283 28.1758 39.5283 28.8598L41.1483 32.4598L42.0483 32.7298V32.9998H39.5283C38.5443 32.9998 37.8243 32.4898 37.3683 31.4698L35.5683 27.4198H34.3983V32.4598L35.6583 32.7298V32.9998H30.3483V32.7298ZM35.1183 26.9698C35.9583 26.9698 36.6183 26.7058 37.0983 26.1778C37.5783 25.6498 37.8183 24.8938 37.8183 23.9098C37.8183 22.9258 37.5783 22.1698 37.0983 21.6418C36.6183 21.1138 35.9583 20.8498 35.1183 20.8498H34.3983V26.9698H35.1183ZM48.5361 33.2698C47.3601 33.2698 46.3281 33.0178 45.4401 32.5138C44.5641 31.9978 43.8861 31.2478 43.4061 30.2638C42.9261 29.2798 42.6861 28.0918 42.6861 26.6998C42.6861 25.3078 42.9261 24.1198 43.4061 23.1358C43.8861 22.1518 44.5641 21.4078 45.4401 20.9038C46.3281 20.3878 47.3601 20.1298 48.5361 20.1298C49.7121 20.1298 50.7381 20.3878 51.6141 20.9038C52.5021 21.4078 53.1861 22.1518 53.6661 23.1358C54.1461 24.1198 54.3861 25.3078 54.3861 26.6998C54.3861 28.0918 54.1461 29.2798 53.6661 30.2638C53.1861 31.2478 52.5021 31.9978 51.6141 32.5138C50.7381 33.0178 49.7121 33.2698 48.5361 33.2698ZM48.5361 32.9098C49.0041 32.9098 49.4361 32.7118 49.8321 32.3158C50.2401 31.9198 50.5761 31.2598 50.8401 30.3358C51.1041 29.4118 51.2361 28.1998 51.2361 26.6998C51.2361 25.1998 51.1041 23.9878 50.8401 23.0638C50.5761 22.1398 50.2401 21.4798 49.8321 21.0838C49.4361 20.6878 49.0041 20.4898 48.5361 20.4898C48.0681 20.4898 47.6301 20.6878 47.2221 21.0838C46.8261 21.4798 46.4961 22.1398 46.2321 23.0638C45.9681 23.9878 45.8361 25.1998 45.8361 26.6998C45.8361 28.1998 45.9681 29.4118 46.2321 30.3358C46.4961 31.2598 46.8261 31.9198 47.2221 32.3158C47.6301 32.7118 48.0681 32.9098 48.5361 32.9098ZM57.7203 22.6498V32.1898L59.1603 32.7298V32.9998H55.7403V32.7298L57.1803 32.1898V20.9398L56.1003 20.6698V20.3998H58.3503C58.9743 20.3998 59.4663 20.5318 59.8263 20.7958C60.1983 21.0478 60.5163 21.4258 60.7803 21.9298L64.7043 29.4358L67.7103 21.9298C67.9143 21.4018 68.1903 21.0178 68.5383 20.7778C68.8863 20.5258 69.4203 20.3998 70.1403 20.3998H72.0303V20.6698L70.9503 20.9398V32.4598L72.0303 32.7298V32.9998H66.9003V32.7298L67.9803 32.4598V22.6498L63.7503 33.1798H63.2103L57.7203 22.6498ZM79.2415 32.9998V32.7298L80.5015 32.3698V22.4878L78.6115 23.8198L78.2515 23.3698L81.5275 20.3998H83.4715V32.3698L84.7315 32.7298V32.9998H79.2415ZM90.4107 33.2698C88.8987 33.2698 87.7527 32.9698 86.9727 32.3698C86.2047 31.7698 85.8207 30.9898 85.8207 30.0298C85.8207 29.3698 86.1087 28.7338 86.6847 28.1218C87.2607 27.4978 87.9627 27.0538 88.7907 26.7898C87.9987 26.3458 87.3927 25.8598 86.9727 25.3318C86.5647 24.7918 86.3607 24.1378 86.3607 23.3698C86.3607 22.4098 86.7447 21.6298 87.5127 21.0298C88.2927 20.4298 89.4387 20.1298 90.9507 20.1298C91.7067 20.1298 92.3667 20.2678 92.9307 20.5438C93.5067 20.8198 93.9507 21.1798 94.2627 21.6238C94.5747 22.0678 94.7307 22.5298 94.7307 23.0098C94.7307 23.5738 94.4847 24.1198 93.9927 24.6478C93.5127 25.1758 92.9487 25.5298 92.3007 25.7098C93.3927 26.1898 94.2207 26.7598 94.7847 27.4198C95.3487 28.0798 95.6307 28.8898 95.6307 29.8498C95.6307 30.4738 95.4387 31.0438 95.0547 31.5598C94.6707 32.0758 94.0887 32.4898 93.3087 32.8018C92.5287 33.1138 91.5627 33.2698 90.4107 33.2698ZM91.7607 25.3498C92.2167 25.1458 92.5827 24.8518 92.8587 24.4678C93.1467 24.0838 93.2907 23.5978 93.2907 23.0098C93.2907 22.5778 93.1827 22.1758 92.9667 21.8038C92.7627 21.4318 92.4927 21.1378 92.1567 20.9218C91.8327 20.6938 91.4907 20.5798 91.1307 20.5798C90.6147 20.5798 90.1827 20.7838 89.8347 21.1918C89.4987 21.5878 89.3307 22.1338 89.3307 22.8298C89.3307 23.7898 90.1407 24.6298 91.7607 25.3498ZM90.2307 32.8198C90.9987 32.8198 91.5927 32.6098 92.0127 32.1898C92.4447 31.7578 92.6607 31.1578 92.6607 30.3898C92.6607 29.8138 92.3727 29.2318 91.7967 28.6438C91.2207 28.0558 90.4587 27.5578 89.5107 27.1498C88.8387 27.3898 88.3107 27.7498 87.9267 28.2298C87.5427 28.6978 87.3507 29.2978 87.3507 30.0298C87.3507 30.5338 87.4767 31.0018 87.7287 31.4338C87.9927 31.8538 88.3407 32.1898 88.7727 32.4418C89.2167 32.6938 89.7027 32.8198 90.2307 32.8198ZM102.029 33.2698C101.057 33.2698 100.175 33.0118 99.3831 32.4958C98.5911 31.9798 97.9611 31.2298 97.4931 30.2458C97.0371 29.2498 96.8091 28.0678 96.8091 26.6998C96.8091 25.3318 97.0371 24.1558 97.4931 23.1718C97.9611 22.1758 98.5911 21.4198 99.3831 20.9038C100.175 20.3878 101.057 20.1298 102.029 20.1298C103.001 20.1298 103.883 20.3878 104.675 20.9038C105.467 21.4198 106.091 22.1758 106.547 23.1718C107.015 24.1558 107.249 25.3318 107.249 26.6998C107.249 28.0678 107.015 29.2498 106.547 30.2458C106.091 31.2298 105.467 31.9798 104.675 32.4958C103.883 33.0118 103.001 33.2698 102.029 33.2698ZM102.029 32.9098C103.409 32.9098 104.099 30.8398 104.099 26.6998C104.099 22.5598 103.409 20.4898 102.029 20.4898C100.649 20.4898 99.9591 22.5598 99.9591 26.6998C99.9591 30.8398 100.649 32.9098 102.029 32.9098ZM114.088 33.2698C113.116 33.2698 112.234 33.0118 111.442 32.4958C110.65 31.9798 110.02 31.2298 109.552 30.2458C109.096 29.2498 108.868 28.0678 108.868 26.6998C108.868 25.3318 109.096 24.1558 109.552 23.1718C110.02 22.1758 110.65 21.4198 111.442 20.9038C112.234 20.3878 113.116 20.1298 114.088 20.1298C115.06 20.1298 115.942 20.3878 116.734 20.9038C117.526 21.4198 118.15 22.1758 118.606 23.1718C119.074 24.1558 119.308 25.3318 119.308 26.6998C119.308 28.0678 119.074 29.2498 118.606 30.2458C118.15 31.2298 117.526 31.9798 116.734 32.4958C115.942 33.0118 115.06 33.2698 114.088 33.2698ZM114.088 32.9098C115.468 32.9098 116.158 30.8398 116.158 26.6998C116.158 22.5598 115.468 20.4898 114.088 20.4898C112.708 20.4898 112.018 22.5598 112.018 26.6998C112.018 30.8398 112.708 32.9098 114.088 32.9098ZM126.061 32.7298L127.141 32.4598V20.9398L126.061 20.6698V20.3998H130.831C132.871 20.3998 134.341 20.7118 135.241 21.3358C136.141 21.9478 136.591 22.8058 136.591 23.9098C136.591 24.6538 136.393 25.2598 135.997 25.7278C135.601 26.1838 135.091 26.5258 134.467 26.7538C133.807 27.0058 133.105 27.1378 132.361 27.1498V27.2398C132.805 27.2638 133.195 27.3298 133.531 27.4378C134.371 27.7018 134.941 28.1758 135.241 28.8598L136.861 32.4598L137.761 32.7298V32.9998H135.241C134.257 32.9998 133.537 32.4898 133.081 31.4698L131.281 27.4198H130.111V32.4598L131.371 32.7298V32.9998H126.061V32.7298ZM130.831 26.9698C131.671 26.9698 132.331 26.7058 132.811 26.1778C133.291 25.6498 133.531 24.8938 133.531 23.9098C133.531 22.9258 133.291 22.1698 132.811 21.6418C132.331 21.1138 131.671 20.8498 130.831 20.8498H130.111V26.9698H130.831ZM144.699 33.2698C142.923 33.2698 141.579 32.8558 140.667 32.0278C139.755 31.1878 139.299 30.0118 139.299 28.4998V20.9398L138.219 20.6698V20.3998H143.349V20.6698L142.269 20.9398V28.4998C142.269 30.0478 142.509 31.1578 142.989 31.8298C143.469 32.4898 144.159 32.8198 145.059 32.8198C145.611 32.8198 146.133 32.6458 146.625 32.2978C147.129 31.9378 147.531 31.4338 147.831 30.7858C148.143 30.1258 148.299 29.3638 148.299 28.4998V21.2098L146.859 20.6698V20.3998H150.279V20.6698L148.839 21.2098V28.4998C148.839 29.4718 148.659 30.3178 148.299 31.0378C147.939 31.7578 147.447 32.3098 146.823 32.6938C146.199 33.0778 145.491 33.2698 144.699 33.2698ZM151.268 32.7298L152.348 32.4598V20.9398L151.268 20.6698V20.3998H156.128C157.952 20.3998 159.29 20.6938 160.142 21.2818C161.006 21.8578 161.438 22.6138 161.438 23.5498C161.438 24.1978 161.252 24.7198 160.88 25.1158C160.508 25.5118 160.034 25.8058 159.458 25.9978C158.846 26.2138 158.186 26.3278 157.478 26.3398V26.4298C158.354 26.4658 159.116 26.5978 159.764 26.8258C160.424 27.0418 160.97 27.3778 161.402 27.8338C161.846 28.2898 162.068 28.8718 162.068 29.5798C162.068 30.6478 161.63 31.4878 160.754 32.0998C159.878 32.6998 158.456 32.9998 156.488 32.9998H151.268V32.7298ZM156.128 26.1598C156.524 26.1598 156.89 26.0518 157.226 25.8358C157.574 25.6078 157.85 25.2958 158.054 24.8998C158.27 24.4918 158.378 24.0418 158.378 23.5498C158.378 23.0218 158.27 22.5538 158.054 22.1458C157.85 21.7378 157.574 21.4198 157.226 21.1918C156.89 20.9638 156.524 20.8498 156.128 20.8498H155.318V26.1598H156.128ZM156.488 32.5498C157.232 32.5498 157.838 32.2858 158.306 31.7578C158.774 31.2298 159.008 30.5038 159.008 29.5798C159.008 28.6558 158.774 27.9298 158.306 27.4018C157.838 26.8738 157.232 26.6098 156.488 26.6098H155.318V32.5498H156.488ZM167.288 33.8998L173.498 19.4998H174.308L168.098 33.8998H167.288ZM181.505 22.6498V32.1898L182.945 32.7298V32.9998H179.525V32.7298L180.965 32.1898V20.9398L179.885 20.6698V20.3998H182.135C182.759 20.3998 183.251 20.5318 183.611 20.7958C183.983 21.0478 184.301 21.4258 184.565 21.9298L188.489 29.4358L191.495 21.9298C191.699 21.4018 191.975 21.0178 192.323 20.7778C192.671 20.5258 193.205 20.3998 193.925 20.3998H195.815V20.6698L194.735 20.9398V32.4598L195.815 32.7298V32.9998H190.685V32.7298L191.765 32.4598V22.6498L187.535 33.1798H186.995L181.505 22.6498ZM197.262 32.1898C197.262 31.4818 197.4 30.8398 197.676 30.2638C197.964 29.6758 198.312 29.1658 198.72 28.7338C199.128 28.3018 199.662 27.7918 200.322 27.2038C200.934 26.6638 201.414 26.2138 201.762 25.8538C202.11 25.4818 202.404 25.0678 202.644 24.6118C202.884 24.1438 203.004 23.6398 203.004 23.0998C203.004 22.3078 202.812 21.6898 202.428 21.2458C202.044 20.8018 201.546 20.5798 200.934 20.5798C200.586 20.5798 200.232 20.6278 199.872 20.7238L199.494 20.8498V23.7298L199.26 23.7838C199.068 23.8078 198.906 23.8198 198.774 23.8198C198.366 23.8198 198.036 23.6998 197.784 23.4598C197.544 23.2078 197.424 22.8778 197.424 22.4698C197.424 22.0858 197.568 21.7138 197.856 21.3538C198.156 20.9938 198.594 20.6998 199.17 20.4718C199.758 20.2438 200.466 20.1298 201.294 20.1298C202.914 20.1298 204.114 20.4538 204.894 21.1018C205.674 21.7498 206.064 22.6558 206.064 23.8198C206.064 24.5518 205.872 25.1818 205.488 25.7098C205.116 26.2378 204.654 26.6758 204.102 27.0238C203.562 27.3718 202.836 27.7678 201.924 28.2118C201.156 28.5838 200.532 28.9138 200.052 29.2018C199.584 29.4778 199.146 29.8138 198.738 30.2098C198.342 30.6058 198.06 31.0558 197.892 31.5598H204.552C204.636 30.9118 204.84 30.3718 205.164 29.9398C205.296 29.7358 205.452 29.5558 205.632 29.3998H206.172V32.9998H197.262V32.1898Z" fill="white"/>
<defs>
<filter id="filter0_d_1_2" x="-10" y="-270" width="370" height="326" filterUnits="userSpaceOnUse" color-interpolation-filters="sRGB">
<feFlood flood-opacity="0" result="BackgroundImageFix"/>
<feColorMatrix in="SourceAlpha" type="matrix" values="0 0 0 0 0 0 0 0 0 0 0 0 0 0 0 0 0 0 127 0" result="hardAlpha"/>
<feOffset dx="10" dy="10"/>
<feGaussianBlur stdDeviation="10"/>
<feColorMatrix type="matrix" values="0 0 0 0 0 0 0 0 0 0 0 0 0 0 0 0 0 0 0.03 0"/>
<feBlend mode="normal" in2="BackgroundImageFix" result="effect1_dropShadow_1_2"/>
<feBlend mode="normal" in="SourceGraphic" in2="effect1_dropShadow_1_2" result="shape"/>
</filter>
<filter id="filter1_d_1_2" x="-5.00024" y="-5.00024" width="248" height="74" filterUnits="userSpaceOnUse" color-interpolation-filters="sRGB">
<feFlood flood-opacity="0" result="BackgroundImageFix"/>
<feColorMatrix in="SourceAlpha" type="matrix" values="0 0 0 0 0 0 0 0 0 0 0 0 0 0 0 0 0 0 127 0" result="hardAlpha"/>
<feOffset dx="5" dy="5"/>
<feGaussianBlur stdDeviation="5"/>
<feColorMatrix type="matrix" values="0 0 0 0 0.890196 0 0 0 0 0.721569 0 0 0 0 0.45098 0 0 0 0.3 0"/>
<feBlend mode="normal" in2="BackgroundImageFix" result="effect1_dropShadow_1_2"/>
<feBlend mode="normal" in="SourceGraphic" in2="effect1_dropShadow_1_2" result="shape"/>
</filter>
</defs>
</svg>
